<svg width="40" height="40" viewBox="0 0 40 40" fill="none" xmlns="http://www.w3.org/2000/svg">
<g clip-path="url(#clip0_1554_153)">
<path d="M40 30.98C39.4178 31.1998 38.7753 31.1991 38.1936 30.9781C37.6119 30.757 37.131 30.3309 36.8417 29.78L31.0917 21.8283L30.2584 20.7166L23.5867 29.79C23.315 30.318 22.8603 30.7291 22.3075 30.9463C21.7548 31.1634 21.1419 31.1719 20.5834 30.97L29.18 19.4366L21.1834 9.01829C21.7583 8.81108 22.3872 8.80833 22.964 9.01051C23.5407 9.21269 24.0302 9.60744 24.35 10.1283L30.31 18.1783L36.3034 10.1616C36.5771 9.64294 37.032 9.24294 37.5814 9.03767C38.1308 8.83241 38.7365 8.83618 39.2834 9.04829L36.18 13.1666L31.9767 18.6383C31.86 18.7424 31.7666 18.87 31.7026 19.0128C31.6386 19.1555 31.6056 19.3102 31.6056 19.4666C31.6056 19.623 31.6386 19.7777 31.7026 19.9205C31.7666 20.0632 31.86 20.1908 31.9767 20.295L39.9834 30.9816L40 30.98ZM0.00335518 19.2933L0.703355 15.835C2.62669 8.99662 10.4667 6.15162 15.86 10.385C19.0184 12.8666 19.8067 16.38 19.6517 20.34H1.86002C1.57169 27.4116 6.67502 31.6816 13.2 29.5C14.2576 29.1189 15.2043 28.4817 15.9553 27.6452C16.7063 26.8087 17.2382 25.799 17.5034 24.7066C17.8484 23.5966 18.4167 23.4066 19.46 23.7266C19.2858 25.0805 18.807 26.3773 18.0597 27.5195C17.3123 28.6618 16.3158 29.6198 15.145 30.3216C13.2109 31.3802 10.9914 31.7998 8.8043 31.5205C6.61717 31.2412 4.57443 30.2773 2.96836 28.7666C1.38059 26.9786 0.42075 24.7206 0.235022 22.3366C0.235022 21.945 0.101689 21.5783 0.0116885 21.2266C0.00355939 20.5828 -0.000329587 19.9389 2.18441e-05 19.295L0.00335518 19.2933ZM1.88169 18.8166H17.9717C17.8717 13.69 14.6367 10.0533 10.3217 10.02C5.51835 9.95329 2.08169 13.51 1.87002 18.7933L1.88169 18.8166Z" fill="#6D6D6D"/>
</g>
<defs>
<clipPath id="clip0_1554_153">
<rect width="40" height="40" fill="white"/>
</clipPath>
</defs>
</svg>
