<svg width="40" height="40" viewBox="0 0 40 40" fill="none" xmlns="http://www.w3.org/2000/svg">
<path fill-rule="evenodd" clip-rule="evenodd" d="M14.4451 15.695C13.8797 15.695 13.3199 15.8064 12.7976 16.0227C12.2753 16.2391 11.8007 16.5562 11.401 16.9559C11.0012 17.3557 10.6841 17.8303 10.4678 18.3526C10.2514 18.8749 10.1401 19.4347 10.1401 20C10.1401 20.5654 10.2514 21.1252 10.4678 21.6475C10.6841 22.1698 11.0012 22.6444 11.401 23.0441C11.8007 23.4439 12.2753 23.761 12.7976 23.9773C13.3199 24.1937 13.8797 24.305 14.4451 24.305H18.7501V15.695H14.4451ZM18.7501 13.195H14.4451C13.3031 13.195 12.2079 12.7414 11.4004 11.9339C10.5929 11.1264 10.1392 10.0312 10.1392 8.88921C10.1392 7.74723 10.5929 6.65202 11.4004 5.84452C12.2079 5.03702 13.3031 4.58337 14.4451 4.58337H18.7501V13.195ZM21.2501 4.58337V13.195H25.5551C26.6824 13.1729 27.756 12.7095 28.5454 11.9044C29.3348 11.0993 29.777 10.0167 29.777 8.88921C29.777 7.76168 29.3348 6.67912 28.5454 5.87404C27.756 5.06895 26.6824 4.60555 25.5551 4.58337H21.2501ZM25.5551 15.6934C24.425 15.6932 23.3403 16.1374 22.5349 16.93C21.7295 17.7226 21.268 18.8002 21.2501 19.93V20.0684C21.2639 20.9167 21.528 21.742 22.0094 22.4407C22.4907 23.1394 23.1678 23.6803 23.9555 23.9954C24.7433 24.3105 25.6066 24.3859 26.437 24.2119C27.2674 24.038 28.0279 23.6226 28.623 23.0178C29.2181 22.4131 29.6212 21.6459 29.7817 20.8128C29.9423 19.9797 29.853 19.1177 29.5252 18.3352C29.1974 17.5526 28.6457 16.8843 27.9393 16.4143C27.233 15.9443 26.4035 15.6935 25.5551 15.6934ZM14.4451 26.805C13.5932 26.8047 12.7604 27.057 12.0519 27.53C11.3435 28.0031 10.7912 28.6755 10.465 29.4625C10.1388 30.2494 10.0533 31.1154 10.2193 31.9509C10.3853 32.7864 10.7953 33.5539 11.3975 34.1564C11.9998 34.7589 12.7671 35.1692 13.6026 35.3355C14.438 35.5018 15.3041 35.4166 16.0911 35.0907C16.8781 34.7648 17.5508 34.2128 18.0241 33.5045C18.4974 32.7963 18.7501 31.9636 18.7501 31.1117V26.805H14.4451Z" fill="#6D6D6D"/>
</svg>
