<svg width="45" height="70" viewBox="0 0 45 70" fill="none" xmlns="http://www.w3.org/2000/svg">
<g clip-path="url(#clip0_690_100)">
<path d="M11.25 70C17.46 70 22.5 64.7733 22.5 58.3333V46.6667H11.25C5.04 46.6667 0 51.8933 0 58.3333C0 64.7733 5.04 70 11.25 70Z" fill="#0ACF83"/>
<path d="M0 35C0 28.56 5.04 23.3333 11.25 23.3333H22.5V46.6667H11.25C5.04 46.6667 0 41.44 0 35Z" fill="#A259FF"/>
<path d="M0 11.6667C0 5.22667 5.04 0 11.25 0H22.5V23.3333H11.25C5.04 23.3333 0 18.1067 0 11.6667Z" fill="#F24E1E"/>
<path d="M22.5 0H33.75C39.96 0 45 5.22667 45 11.6667C45 18.1067 39.96 23.3333 33.75 23.3333H22.5V0Z" fill="#FF7262"/>
<path d="M45 35C45 41.44 39.96 46.6667 33.75 46.6667C27.54 46.6667 22.5 41.44 22.5 35C22.5 28.56 27.54 23.3333 33.75 23.3333C39.96 23.3333 45 28.56 45 35Z" fill="#1ABCFE"/>
</g>
<defs>
<clipPath id="clip0_690_100">
<rect width="45" height="70" fill="white"/>
</clipPath>
</defs>
</svg>
