<svg width="40" height="40" viewBox="0 0 40 40" fill="none" xmlns="http://www.w3.org/2000/svg">
<g clip-path="url(#clip0_1732_63)">
<path d="M5.46069 32.2735L10.3841 0.769153C10.4136 0.580875 10.5015 0.406618 10.6354 0.270996C10.7693 0.135375 10.9424 0.0452422 11.1303 0.0133297C11.3182 -0.0185828 11.5113 0.00933763 11.6825 0.0931473C11.8536 0.176957 11.9941 0.31242 12.0841 0.480403L17.176 9.97728L19.2054 6.1129C19.2825 5.96632 19.3983 5.8436 19.5401 5.75799C19.6819 5.67238 19.8444 5.62713 20.0101 5.62713C20.1757 5.62713 20.3382 5.67238 20.48 5.75799C20.6219 5.8436 20.7376 5.96632 20.8148 6.1129L34.5554 32.2735H5.46069Z" fill="#FFA000"/>
<path d="M22.4698 20.0014L17.1735 9.97266L5.46069 32.2736L22.4698 20.0014Z" fill="#F57C00"/>
<path d="M34.5554 32.2739L30.7844 8.93892C30.7566 8.77443 30.684 8.62078 30.5746 8.49478C30.4653 8.36878 30.3234 8.27529 30.1644 8.22455C30.0056 8.17393 29.8358 8.16798 29.6738 8.20733C29.5118 8.24668 29.3637 8.32982 29.2457 8.44767L5.46069 32.2736L18.6216 39.6542C19.0281 39.8811 19.4858 40.0002 19.9513 40.0002C20.4168 40.0002 20.8746 39.8811 21.281 39.6542L34.5554 32.2739Z" fill="#FFCA28"/>
<path d="M30.7843 8.93857C30.7564 8.77408 30.6838 8.62043 30.5745 8.49443C30.4651 8.36843 30.3232 8.27494 30.1643 8.2242C30.0054 8.17354 29.8357 8.16754 29.6737 8.20683C29.5116 8.24613 29.3635 8.32922 29.2455 8.44701L24.5246 13.1804L20.8124 6.11295C20.7352 5.96637 20.6195 5.84365 20.4777 5.75804C20.3359 5.67243 20.1734 5.62718 20.0077 5.62718C19.8421 5.62718 19.6795 5.67243 19.5377 5.75804C19.3959 5.84365 19.2802 5.96637 19.203 6.11295L17.1736 9.97701L12.0818 0.480449C11.9917 0.312234 11.8509 0.17663 11.6795 0.0928396C11.508 0.00904895 11.3145 -0.0186819 11.1265 0.013574C10.9385 0.0458211 10.7654 0.136342 10.6317 0.272334C10.498 0.408326 10.4105 0.582907 10.3815 0.771387L5.46052 32.2736H5.44458L5.4602 32.2917L5.58989 32.3554L29.2386 8.6792C29.3566 8.56074 29.5049 8.47708 29.6673 8.43741C29.8296 8.39774 29.9998 8.40359 30.1591 8.45432C30.3184 8.50506 30.4606 8.59871 30.5701 8.72499C30.6796 8.85127 30.7522 9.00529 30.7799 9.17014L34.519 32.2961L34.5552 32.2733L30.7843 8.93857ZM5.50364 32.2304L10.3836 0.994199C10.4126 0.805619 10.5002 0.630936 10.634 0.494878C10.7677 0.35882 10.9409 0.26828 11.129 0.236074C11.3171 0.203845 11.5106 0.231623 11.682 0.315471C11.8535 0.39932 11.9942 0.534989 12.0843 0.703262L17.1755 10.2001L19.2052 6.33576C19.2824 6.18918 19.3981 6.06646 19.5399 5.98085C19.6817 5.89524 19.8442 5.84999 20.0099 5.84999C20.1755 5.84999 20.3381 5.89524 20.4799 5.98085C20.6217 6.06646 20.7374 6.18918 20.8146 6.33576L24.4515 13.2529L5.50302 32.2304H5.50364Z" fill="white" fill-opacity="0.2"/>
<path opacity="0.2" d="M21.2809 39.431C20.8744 39.6579 20.4167 39.777 19.9512 39.777C19.4857 39.777 19.028 39.6579 18.6215 39.431L5.49184 32.0716L5.45996 32.2738L18.6209 39.652C19.0274 39.8788 19.4851 39.9979 19.9506 39.9979C20.4161 39.9979 20.8738 39.8788 21.2803 39.652L34.5553 32.2738L34.5209 32.0645L21.2803 39.4316L21.2809 39.431Z" fill="#A52714"/>
</g>
<defs>
<clipPath id="clip0_1732_63">
<rect width="40" height="40" fill="white"/>
</clipPath>
</defs>
</svg>
