<svg width="40" height="40" viewBox="0 0 40 40" fill="none" xmlns="http://www.w3.org/2000/svg">
<path d="M33.3334 31.1502L21.1667 37.9002C20.3334 38.3336 19.5001 38.3336 18.6667 37.9002L6.66675 31.1502L28.4167 9.23356L29.0001 9.06689C29.5001 9.06689 29.7834 9.28356 29.8334 9.73356L33.3334 31.1502ZM15.5834 9.56689L8.00008 22.1502L11.1667 2.23356C11.2167 1.78356 11.5001 1.56689 12.0001 1.56689C12.3334 1.56689 12.5501 1.66689 12.6667 1.98356L16.2501 8.56689L15.5834 9.56689ZM23.0834 11.6669L7.16675 27.6502L19.2501 7.15023C19.4167 6.81689 19.6667 6.66689 20.0001 6.66689C20.3334 6.66689 20.5501 6.81689 20.6667 7.15023L23.0834 11.6669Z" fill="#6D6D6D"/>
</svg>
