<svg width="60" height="60" viewBox="0 0 60 60" fill="none" xmlns="http://www.w3.org/2000/svg">
<g clip-path="url(#clip0_690_98)">
<path d="M58.4707 27.3647L32.6351 1.53001C31.1482 0.042201 28.7351 0.042201 27.2459 1.53001L21.8815 6.89533L28.6868 13.7006C30.2688 13.1667 32.082 13.5249 33.3424 14.7853C34.6095 16.0538 34.9648 17.8824 34.4178 19.4695L40.9765 26.0288C42.5632 25.4817 44.3946 25.8352 45.6612 27.1045C47.4331 28.875 47.4331 31.7452 45.6612 33.5166C45.2401 33.9379 44.7402 34.272 44.1899 34.5C43.6397 34.728 43.0499 34.8454 42.4542 34.8454C41.8586 34.8454 41.2688 34.728 40.7186 34.5C40.1683 34.272 39.6684 33.9379 39.2473 33.5166C38.6147 32.8836 38.1834 32.0775 38.0078 31.2C37.8323 30.3224 37.9202 29.4125 38.2606 28.5849L32.1443 22.4686L32.1434 38.566C32.5871 38.7845 32.9923 39.0739 33.3429 39.4228C35.1138 41.1933 35.1138 44.0625 33.3429 45.8367C31.5715 47.6072 28.7004 47.6072 26.9309 45.8367C25.1599 44.063 25.1599 41.1938 26.9309 39.4228C27.3552 38.9979 27.8598 38.6616 28.4154 38.4338V22.1874C27.8594 21.9601 27.3546 21.6236 26.9309 21.1978C25.5893 19.8572 25.2663 17.8885 25.9545 16.2403L19.2453 9.53111L1.53025 27.2452C0.815555 27.9601 0.414062 28.9296 0.414062 29.9405C0.414063 30.9514 0.815555 31.9209 1.53025 32.6358L27.3663 58.4705C28.8542 59.9583 31.2663 59.9583 32.7565 58.4705L58.4712 32.7558C59.1857 32.0407 59.5871 31.0711 59.587 30.0602C59.5869 29.0492 59.1854 28.0797 58.4707 27.3647Z" fill="#F34F29"/>
</g>
<defs>
<clipPath id="clip0_690_98">
<rect width="60" height="60" fill="white"/>
</clipPath>
</defs>
</svg>
