<svg width="40" height="40" viewBox="0 0 40 40" fill="none" xmlns="http://www.w3.org/2000/svg">
<g clip-path="url(#clip0_1554_181)">
<path fill-rule="evenodd" clip-rule="evenodd" d="M21.5917 1.4883C21.3827 1.27917 21.1346 1.11326 20.8615 1.00007C20.5884 0.886875 20.2956 0.828613 20 0.828613C19.7044 0.828613 19.4116 0.886875 19.1385 1.00007C18.8654 1.11326 18.6173 1.27917 18.4083 1.4883L13.7333 6.16663C14.0983 6.5133 14.45 6.84997 14.6333 7.0333L18.3833 10.7833C19.0831 10.4491 19.8693 10.3401 20.6336 10.4712C21.3979 10.6023 22.1028 10.9672 22.6511 11.5155C23.1995 12.0639 23.5643 12.7687 23.6955 13.5331C23.8266 14.2974 23.7175 15.0835 23.3833 15.7833L25.4667 17.8666C26.2649 17.4852 27.1723 17.3982 28.0284 17.6212C28.8846 17.8441 29.6343 18.3625 30.1452 19.0848C30.656 19.807 30.8951 20.6867 30.82 21.5682C30.745 22.4497 30.3608 23.2762 29.7352 23.9018C29.1096 24.5274 28.283 24.9116 27.4015 24.9867C26.5201 25.0617 25.6404 24.8226 24.9181 24.3118C24.1959 23.8009 23.6774 23.0512 23.4545 22.195C23.2316 21.3389 23.3186 20.4315 23.7 19.6333L21.6167 17.5533C21.4975 17.6105 21.3751 17.6606 21.25 17.7033V23.965C22.0845 24.2599 22.7879 24.8403 23.2358 25.6036C23.6837 26.367 23.8473 27.2641 23.6977 28.1364C23.5481 29.0087 23.0949 29.8001 22.4183 30.3705C21.7416 30.941 20.8851 31.2539 20 31.2539C19.115 31.2539 18.2584 30.941 17.5817 30.3705C16.9051 29.8001 16.4519 29.0087 16.3023 28.1364C16.1527 27.2641 16.3163 26.367 16.7643 25.6036C17.2122 24.8403 17.9155 24.2599 18.75 23.965V17.705C18.2539 17.5297 17.8001 17.252 17.4184 16.8898C17.0366 16.5277 16.7353 16.0893 16.5341 15.6031C16.3329 15.1169 16.2363 14.5937 16.2505 14.0677C16.2647 13.5417 16.3895 13.0246 16.6167 12.55L12.8667 8.79997C12.7433 8.6783 12.3833 8.30163 12 7.8983L1.49001 18.4083C1.28087 18.6173 1.11497 18.8654 1.00178 19.1385C0.888584 19.4116 0.830322 19.7043 0.830322 20C0.830322 20.2956 0.888584 20.5883 1.00178 20.8614C1.11497 21.1346 1.28087 21.3827 1.49001 21.5916L18.4083 38.5083C18.6173 38.7174 18.8654 38.8833 19.1385 38.9965C19.4116 39.1097 19.7044 39.168 20 39.168C20.2956 39.168 20.5884 39.1097 20.8615 38.9965C21.1346 38.8833 21.3827 38.7174 21.5917 38.5083L38.51 21.5916C38.7191 21.3827 38.8851 21.1346 38.9982 20.8614C39.1114 20.5883 39.1697 20.2956 39.1697 20C39.1697 19.7043 39.1114 19.4116 38.9982 19.1385C38.8851 18.8654 38.7191 18.6173 38.51 18.4083L21.5917 1.4883ZM20 26.25C19.6685 26.25 19.3505 26.3817 19.1161 26.6161C18.8817 26.8505 18.75 27.1684 18.75 27.5C18.75 27.8315 18.8817 28.1494 19.1161 28.3839C19.3505 28.6183 19.6685 28.75 20 28.75C20.3315 28.75 20.6495 28.6183 20.8839 28.3839C21.1183 28.1494 21.25 27.8315 21.25 27.5C21.25 27.1684 21.1183 26.8505 20.8839 26.6161C20.6495 26.3817 20.3315 26.25 20 26.25ZM21.25 14.1666C21.25 14.4982 21.1183 14.8161 20.8839 15.0505C20.6495 15.2849 20.3315 15.4166 20 15.4166C19.6685 15.4166 19.3505 15.2849 19.1161 15.0505C18.8817 14.8161 18.75 14.4982 18.75 14.1666C18.75 13.8351 18.8817 13.5172 19.1161 13.2828C19.3505 13.0483 19.6685 12.9166 20 12.9166C20.3315 12.9166 20.6495 13.0483 20.8839 13.2828C21.1183 13.5172 21.25 13.8351 21.25 14.1666ZM25.8333 21.25C25.8333 20.9184 25.965 20.6005 26.1995 20.3661C26.4339 20.1317 26.7518 20 27.0833 20C27.4149 20 27.7328 20.1317 27.9672 20.3661C28.2016 20.6005 28.3333 20.9184 28.3333 21.25C28.3333 21.5815 28.2016 21.8994 27.9672 22.1339C27.7328 22.3683 27.4149 22.5 27.0833 22.5C26.7518 22.5 26.4339 22.3683 26.1995 22.1339C25.965 21.8994 25.8333 21.5815 25.8333 21.25Z" fill="#6D6D6D"/>
</g>
<defs>
<clipPath id="clip0_1554_181">
<rect width="40" height="40" fill="white"/>
</clipPath>
</defs>
</svg>
