<svg width="40" height="40" viewBox="0 0 40 40" fill="none" xmlns="http://www.w3.org/2000/svg">
<g clip-path="url(#clip0_1732_41)">
<path d="M38.9803 18.2429L21.7566 1.01979C20.7653 0.0279102 19.1566 0.0279102 18.1638 1.01979L14.5875 4.59666L19.1244 9.13354C20.1791 8.7776 21.3878 9.01635 22.2281 9.85666C23.0728 10.7023 23.3097 11.9213 22.945 12.9795L27.3175 17.3523C28.3753 16.9876 29.5963 17.2232 30.4406 18.0695C31.6219 19.2498 31.6219 21.1632 30.4406 22.3442C30.1599 22.625 29.8266 22.8478 29.4598 22.9998C29.0929 23.1518 28.6997 23.23 28.3027 23.23C27.9056 23.23 27.5124 23.1518 27.1455 22.9998C26.7787 22.8478 26.4454 22.625 26.1647 22.3442C25.743 21.9221 25.4556 21.3847 25.3386 20.7997C25.2215 20.2147 25.2801 19.6082 25.5069 19.0563L21.4294 14.9788L21.4288 25.7104C21.7246 25.8561 21.9947 26.049 22.2284 26.2817C23.4091 27.462 23.4091 29.3748 22.2284 30.5576C21.0475 31.7379 19.1334 31.7379 17.9538 30.5576C16.7731 29.3751 16.7731 27.4623 17.9538 26.2817C18.2369 25.9987 18.5732 25.7746 18.9434 25.6223V14.7913C18.5728 14.6397 18.2363 14.4154 17.9538 14.1317C17.0594 13.2379 16.8441 11.9254 17.3028 10.8267L12.83 6.35385L1.02 18.1632C0.543541 18.6398 0.275879 19.2862 0.275879 19.9601C0.275879 20.634 0.543541 21.2804 1.02 21.757L18.2441 38.9801C19.2359 39.972 20.8441 39.972 21.8375 38.9801L38.9806 21.837C39.457 21.3602 39.7246 20.7138 39.7245 20.0399C39.7244 19.3659 39.4568 18.7196 38.9803 18.2429Z" fill="#F34F29"/>
</g>
<defs>
<clipPath id="clip0_1732_41">
<rect width="40" height="40" fill="white"/>
</clipPath>
</defs>
</svg>
