<svg width="35" height="40" viewBox="0 0 35 40" fill="none" xmlns="http://www.w3.org/2000/svg">
<g clip-path="url(#clip0_1732_14)">
<path d="M17.5 39.9257C16.9565 39.9257 16.4493 39.779 15.9783 39.5223L11.1594 36.6246C10.4348 36.2211 10.7971 36.0744 11.0145 36.001C11.9927 35.6709 12.1738 35.5976 13.1883 35.0106C13.2971 34.9372 13.4421 34.9739 13.5506 35.0473L17.2464 37.2848C17.3913 37.3581 17.5725 37.3581 17.6812 37.2848L32.1378 28.8118C32.2827 28.7385 32.3552 28.5918 32.3552 28.4084V11.4989C32.3552 11.3155 32.2827 11.1688 32.1378 11.0954L17.6812 2.65903C17.5362 2.58567 17.3551 2.58567 17.2464 2.65903L2.78975 11.0956C2.64482 11.1689 2.57236 11.3523 2.57236 11.499V28.4084C2.57236 28.5551 2.64482 28.7385 2.78975 28.8118L6.73914 31.1226C8.87687 32.2229 10.2173 30.9392 10.2173 29.6554V12.966C10.2173 12.746 10.3986 12.5259 10.6522 12.5259H12.5001C12.7174 12.5259 12.9348 12.7093 12.9348 12.966V29.6553C12.9348 32.553 11.3768 34.2402 8.65936 34.2402C7.82605 34.2402 7.17391 34.2402 5.32615 33.3233L1.52168 31.1226C0.579688 30.5722 0 29.5453 0 28.4449V11.5357C0 10.4354 0.579688 9.40837 1.52168 8.85806L15.9783 0.385121C16.8841 -0.128374 18.1159 -0.128374 19.0217 0.385121L33.4783 8.85806C34.4203 9.40824 35 10.4352 35 11.5357V28.4451C35 29.5454 34.4203 30.5724 33.4783 31.1226L19.0217 39.5958C18.5507 39.8158 18.0072 39.9259 17.5 39.9259M21.9565 28.2983C15.6159 28.2983 14.3116 25.3641 14.3116 22.8698C14.3116 22.6498 14.4927 22.4297 14.7463 22.4297H16.6303C16.8477 22.4297 17.029 22.5764 17.029 22.7965C17.3188 24.7404 18.1521 25.6942 21.9927 25.6942C25.0362 25.6942 26.3406 24.9973 26.3406 23.3468C26.3406 22.393 25.9783 21.6961 21.2319 21.2192C17.2826 20.8157 14.8188 19.9354 14.8188 16.7444C14.8188 13.7732 17.2825 12.0127 21.413 12.0127C26.0507 12.0127 28.3333 13.6265 28.6232 17.1477C28.6232 17.2578 28.5869 17.3679 28.5145 17.4779C28.442 17.5512 28.3333 17.6246 28.2246 17.6246H26.3406C26.1594 17.6246 25.9783 17.4779 25.942 17.2945C25.5072 15.2772 24.3841 14.617 21.413 14.617C18.0798 14.617 17.6812 15.7907 17.6812 16.6709C17.6812 17.7347 18.1521 18.0647 22.6449 18.6516C27.1015 19.2384 29.2029 20.0821 29.2029 23.2366C29.1666 26.4644 26.558 28.2983 21.9565 28.2983Z" fill="#539E43"/>
</g>
<defs>
<clipPath id="clip0_1732_14">
<rect width="35" height="40" fill="white"/>
</clipPath>
</defs>
</svg>
