<svg width="40" height="40" viewBox="0 0 40 40" fill="none" xmlns="http://www.w3.org/2000/svg">
<g clip-path="url(#clip0_1554_149)">
<path d="M20 39.9267C19.43 39.9267 18.9 39.7783 18.405 39.5217L13.3566 36.625C12.5983 36.2217 12.9783 36.075 13.2066 36.0017C14.23 35.6717 14.42 35.5983 15.4833 35.01C15.5966 34.9367 15.75 34.9733 15.8633 35.0467L19.735 37.285C19.885 37.3583 20.0766 37.3583 20.19 37.285L35.335 28.8117C35.485 28.7383 35.5616 28.5917 35.5616 28.4083V11.4983C35.5616 11.315 35.4866 11.1683 35.335 11.095L20.19 2.66001C20.0383 2.58667 19.8483 2.58667 19.735 2.66001L4.58996 11.095C4.43829 11.1683 4.36163 11.3517 4.36163 11.4983V28.4083C4.36163 28.555 4.43829 28.7383 4.58996 28.8117L8.72663 31.1233C10.9666 32.2233 12.37 30.94 12.37 29.6567V12.9667C12.37 12.7467 12.56 12.5267 12.8266 12.5267H14.7616C14.99 12.5267 15.2166 12.71 15.2166 12.9667V29.655C15.2166 32.5533 13.585 34.24 10.7383 34.24C9.86496 34.24 9.18163 34.24 7.24663 33.3233L3.26163 31.1233C2.78178 30.8589 2.38106 30.4713 2.10072 30.0006C1.82038 29.5298 1.67054 28.9929 1.66663 28.445V11.535C1.66663 10.435 2.27329 9.40834 3.26163 8.85834L18.4066 0.38334C18.8999 0.131141 19.446 -0.000366211 20 -0.000366211C20.554 -0.000366211 21.1 0.131141 21.5933 0.38334L36.74 8.85667C37.7266 9.40667 38.3333 10.4333 38.3333 11.5333V28.4433C38.3333 29.5433 37.7266 30.57 36.74 31.1217L21.595 39.5933C21.0916 39.8116 20.5486 39.9239 20 39.9233M24.6683 28.295C18.0266 28.295 16.66 25.3617 16.66 22.8667C16.66 22.6467 16.85 22.4267 17.115 22.4267H19.0883C19.3166 22.4267 19.505 22.5733 19.505 22.7933C19.81 24.7367 20.6833 25.69 24.7066 25.69C27.895 25.69 29.2616 24.9933 29.2616 23.3433C29.2616 22.39 28.8816 21.6933 23.91 21.2167C19.7716 20.8117 17.1916 19.9333 17.1916 16.7417C17.1916 13.77 19.7716 12.0083 24.1 12.0083C28.9583 12.0083 31.35 13.6233 31.6533 17.145C31.6496 17.2642 31.6095 17.3793 31.5383 17.475C31.4633 17.5483 31.35 17.6217 31.235 17.6217H29.2616C29.1658 17.6194 29.0733 17.5859 28.9981 17.5264C28.9229 17.4668 28.8692 17.3845 28.845 17.2917C28.3883 15.275 27.2116 14.6133 24.1 14.6133C20.6066 14.6133 20.19 15.7867 20.19 16.6683C20.19 17.7317 20.6833 18.0617 25.39 18.6483C30.0583 19.235 32.26 20.0783 32.26 23.2317C32.2216 26.4617 29.49 28.295 24.6683 28.295Z" fill="#6D6D6D"/>
</g>
<defs>
<clipPath id="clip0_1554_149">
<rect width="40" height="40" fill="white"/>
</clipPath>
</defs>
</svg>
