<svg width="40" height="40" viewBox="0 0 40 40" fill="none" xmlns="http://www.w3.org/2000/svg">
<g clip-path="url(#clip0_1554_183)">
<path d="M19.6838 0.607198C15.6434 0.669698 11.5888 1.99095 8.14469 4.65095C-0.331873 11.1988 -1.89594 23.3791 4.65219 31.8556C11.2013 40.3316 23.3825 41.8944 31.8578 35.3453C40.3309 28.7978 41.8947 16.6209 35.3491 8.14564C31.4625 3.11251 25.5888 0.515636 19.6838 0.607198ZM28.7072 7.83814C29.3387 7.8419 29.9517 8.05194 30.4528 8.43626L27.9316 10.9728C27.923 10.9825 27.9151 10.9928 27.9078 11.0034C27.8624 11.0494 27.8357 11.1107 27.8331 11.1753C27.8331 11.2144 27.8419 11.2529 27.8588 11.2881C27.8757 11.3232 27.9004 11.3541 27.9309 11.3784H27.9316L29.8378 13.2847C29.3161 13.5124 28.7377 13.5772 28.1785 13.4705C27.6193 13.3638 27.1054 13.0907 26.7041 12.6869C25.8959 11.8744 25.6616 10.6544 26.0938 9.59595C26.5259 8.53657 27.5563 7.84439 28.7072 7.83814ZM30.9322 8.91063C31.3444 9.4094 31.5692 10.0367 31.5675 10.6838C31.5663 11.4418 31.2642 12.1684 30.7275 12.7038C30.6199 12.805 30.5052 12.8984 30.3844 12.9834L28.8459 11.4688L28.545 11.1678L28.6278 11.085L30.9319 8.91001L30.9322 8.91063ZM30.8178 10.2209C30.7612 10.2032 30.7001 10.2066 30.6459 10.2306C30.5923 10.2584 30.5518 10.3062 30.5334 10.3638C30.5244 10.3925 30.5211 10.4227 30.5238 10.4527C30.5265 10.4826 30.5351 10.5118 30.5491 10.5384C30.6045 10.6552 30.6263 10.7851 30.6121 10.9136C30.5979 11.0421 30.5483 11.1641 30.4688 11.2659C30.4484 11.2856 30.4324 11.3094 30.4219 11.3357C30.4114 11.3619 30.4066 11.3902 30.4078 11.4184C30.4091 11.4759 30.4297 11.5309 30.4688 11.5722C30.5104 11.5881 30.5565 11.5881 30.5981 11.5722C30.6357 11.5816 30.6751 11.5805 30.7121 11.5691C30.7491 11.5577 30.7823 11.5364 30.8081 11.5075C30.9412 11.3445 31.0255 11.1472 31.0512 10.9383C31.0769 10.7295 31.043 10.5176 30.9534 10.3272V10.3284C30.9229 10.2772 30.8746 10.239 30.8178 10.2209ZM24.7938 12.3219C25.1708 12.3347 25.5337 12.4691 25.8281 12.705C25.5111 12.7507 25.2172 12.8976 24.9903 13.1238L17.8631 20.2191L16.4644 18.8203C20.1606 15.1416 22.4206 13.22 23.8256 12.5903C24.1151 12.408 24.4517 12.3149 24.7938 12.3219ZM26.0328 13.2469C26.2721 13.2471 26.5016 13.3419 26.6713 13.5106C26.7613 13.5954 26.8323 13.6983 26.8797 13.8126C26.927 13.9268 26.9496 14.0498 26.9459 14.1734C26.9418 14.2966 26.9124 14.4177 26.8594 14.529C26.8065 14.6402 26.7311 14.7394 26.6381 14.8203L19.06 21.4159L18.2422 20.5981L25.3944 13.5106C25.5641 13.342 25.7936 13.247 26.0328 13.2469ZM26.9684 15.34C26.4403 17.4344 23.6413 20.2722 20.7225 23.0297L19.5422 21.8506L26.9684 15.34ZM16.0522 19.2334L16.1378 19.3178L17.2356 20.4156L14.2263 21.0594L16.0522 19.2334ZM17.8625 21.0584L17.8638 21.0597L18.2288 21.4331L18.2344 21.4594L18.2588 21.4631L18.3363 21.5425L18.5925 21.805L16.9097 22.0113L17.8625 21.0584ZM19.0709 22.3322L20.1891 23.4497C17.7166 25.5056 15.0035 27.2534 12.1094 28.6547C12.0154 28.6994 11.9399 28.7754 11.8956 28.8696C11.8513 28.9637 11.8411 29.0704 11.8666 29.1713L12.19 30.5775C12.2019 30.594 12.2083 30.6139 12.2083 30.6342C12.2083 30.6546 12.2019 30.6744 12.19 30.6909C12.1722 30.7069 12.1492 30.7157 12.1253 30.7157C12.1014 30.7157 12.0784 30.7069 12.0606 30.6909L10.1538 28.7684L16.0313 22.8047L19.0709 22.3322ZM9.71688 29.1884L9.98844 29.4428L11.3922 30.8466L8.26219 30.6441L9.71688 29.1884Z" fill="#6D6D6D"/>
</g>
<defs>
<clipPath id="clip0_1554_183">
<rect width="40" height="40" fill="white"/>
</clipPath>
</defs>
</svg>
