<svg width="40" height="40" viewBox="0 0 40 40" fill="none" xmlns="http://www.w3.org/2000/svg">
<path d="M28.0084 1.66663C26.5414 1.68035 25.0827 1.8877 23.6701 2.28329L23.5701 2.31329C22.6806 2.16078 21.7807 2.07664 20.8784 2.06163C19.0234 2.02996 17.4284 2.46663 16.1451 3.19496C14.8784 2.76829 12.2517 2.03329 9.48339 2.17996C7.55506 2.28163 5.45173 2.84996 3.89339 4.44663C2.33839 6.04329 1.51673 8.51329 1.69006 11.875C1.73673 12.8033 2.00839 14.315 2.46173 16.275C2.91173 18.2333 3.54839 20.525 4.34006 22.6166C5.13173 24.7083 6.00006 26.59 7.35673 27.8666C8.03339 28.5066 8.96506 29.045 10.0634 29C10.8351 28.97 11.5334 28.6416 12.1351 28.1566C12.4284 28.5316 12.7417 28.695 13.0267 28.8466C13.3851 29.0366 13.7351 29.1666 14.0967 29.2533C15.0983 29.5101 16.1414 29.5617 17.1634 29.405C17.6084 29.3333 18.0767 29.1933 18.5434 28.9933C18.5601 29.4966 18.5801 29.99 18.6017 30.49C18.6651 32.0733 18.7067 33.535 19.1967 34.8166C19.2751 35.0266 19.4901 36.105 20.3417 37.0566C21.1917 38.01 22.8584 38.6033 24.7551 38.21C26.0934 37.9316 27.7967 37.43 28.9267 35.87C30.0434 34.3266 30.5484 32.1133 30.6484 28.5216C30.6734 28.3283 30.7034 28.1633 30.7351 28.0083L31.0017 28.0316H31.0317C32.4601 28.095 34.0101 27.8983 35.3051 27.315C36.4517 26.7983 37.3184 26.2783 37.9501 25.3533C38.1084 25.125 38.2817 24.8483 38.3284 24.37C38.3751 23.895 38.0951 23.1483 37.6267 22.805C36.6884 22.115 36.1001 22.3766 35.4684 22.505C34.8462 22.6383 34.2151 22.7122 33.5751 22.7266C35.3967 19.7533 36.7017 16.5933 37.4467 13.7966C37.8867 12.1466 38.1351 10.625 38.1551 9.29496C38.1751 7.96496 38.0634 6.78663 37.2417 5.76663C34.6734 2.58329 31.0617 1.70329 28.2684 1.67329C28.1817 1.67107 28.0951 1.67051 28.0084 1.67163V1.66663ZM27.9351 2.64496C30.5767 2.61996 33.9534 3.33996 36.3767 6.34496C36.9217 7.01996 37.0834 8.00663 37.0651 9.22329C37.0451 10.4383 36.8134 11.8916 36.3901 13.485C35.5684 16.5716 34.0151 20.1683 31.8267 23.3983C31.9044 23.4521 31.9884 23.4964 32.0767 23.53C32.5334 23.7133 33.5734 23.87 35.6517 23.4566C36.1734 23.3483 36.5567 23.2766 36.9534 23.57C37.0483 23.6487 37.1237 23.7484 37.1737 23.8612C37.2238 23.9739 37.247 24.0967 37.2417 24.22C37.2197 24.4061 37.149 24.5832 37.0367 24.7333C36.6367 25.3183 35.8434 25.8733 34.8267 26.33C33.9284 26.7366 32.6384 26.9483 31.4951 26.9616C30.9217 26.9666 30.3934 26.9233 29.9451 26.7883L29.9151 26.7783C29.7417 28.3966 29.3434 31.595 29.0851 33.0533C28.8767 34.23 28.5134 35.165 27.8184 35.865C27.1251 36.565 26.1451 36.9866 24.8251 37.2616C23.1901 37.6016 21.9984 37.235 21.2301 36.6066C20.4634 35.9816 20.1117 35.15 19.9001 34.64C19.7551 34.29 19.6801 33.835 19.6067 33.2266C19.5261 32.4983 19.4722 31.7672 19.4451 31.035C19.3972 29.7511 19.3817 28.4663 19.3984 27.1816C18.7151 27.7866 17.8651 28.19 16.9534 28.3416C15.8701 28.52 14.9001 28.345 14.3217 28.205C14.0382 28.1351 13.764 28.0316 13.5051 27.8966C13.2351 27.7583 12.9801 27.6016 12.8101 27.2916C12.7099 27.1147 12.6779 26.9072 12.7201 26.7083C12.7746 26.5062 12.8956 26.3284 13.0634 26.2033C13.3767 25.9566 13.7884 25.82 14.4101 25.6933C15.5434 25.4683 15.9384 25.3133 16.1784 25.1283C16.3834 24.97 16.6151 24.65 17.0251 24.1783L17.0201 24.1166C16.2894 24.0952 15.5731 23.9083 14.9251 23.57C14.6901 23.81 13.4834 25.0483 12.0117 26.765C11.3934 27.4833 10.7101 27.895 9.98839 27.925C9.26673 27.955 8.61506 27.6016 8.06173 27.0816C6.95339 26.0383 6.07006 24.2433 5.30006 22.215C4.53339 20.185 3.90673 17.925 3.46339 16C3.01673 14.075 2.75339 12.5233 2.71673 11.775C2.55006 8.59329 3.31673 6.44996 4.63339 5.09829C5.95006 3.74663 7.75339 3.23329 9.51339 3.13663C12.6701 2.95996 15.6684 4.02829 16.2751 4.25829C17.4434 3.48829 18.9484 3.00829 20.8301 3.03829C21.7219 3.0507 22.6096 3.1625 23.4767 3.37163L23.5084 3.35829C23.8906 3.22829 24.2784 3.1194 24.6717 3.03163C25.7425 2.78993 26.8357 2.66145 27.9334 2.64829L27.9351 2.64496ZM28.1734 3.66829H27.9451C27.0433 3.68044 26.1448 3.77866 25.2617 3.96163C27.0146 4.72509 28.5547 5.90477 29.7484 7.39829C30.4715 8.29179 31.0713 9.2784 31.5317 10.3316C31.7051 10.735 31.8217 11.0766 31.8867 11.34C31.9201 11.4733 31.9434 11.585 31.9501 11.7016C31.9562 11.7755 31.95 11.8498 31.9317 11.9216L31.9217 11.9416C31.9701 13.28 31.6284 14.1866 31.5867 15.4633C31.5551 16.39 31.7984 17.4783 31.8584 18.6633C31.9151 19.78 31.7767 21.005 31.0301 22.2083C31.0923 22.2816 31.1523 22.355 31.2101 22.4283C33.1851 19.4116 34.6101 16.0716 35.3684 13.2266C35.7734 11.6933 35.9901 10.305 36.0084 9.20496C36.0251 8.10496 35.8134 7.30663 35.5434 6.97496C33.4301 4.35329 30.5717 3.68663 28.1734 3.66829ZM20.6317 4.05829C18.7701 4.06163 17.4334 4.60829 16.4217 5.42496C15.3767 6.26996 14.6767 7.42496 14.2167 8.60996C13.7715 9.79418 13.4992 11.0364 13.4084 12.2983L13.4301 12.2866C13.9917 11.98 14.7301 11.675 15.5201 11.4983C16.3117 11.3216 17.1634 11.2666 17.9351 11.5566C18.7067 11.8466 19.3451 12.53 19.5767 13.5666C20.6851 18.5433 19.2317 20.3933 18.6951 21.7883C18.4937 22.2946 18.3201 22.8115 18.1751 23.3366C18.2417 23.3177 18.3089 23.3044 18.3767 23.2966C18.6695 23.2808 18.9616 23.3381 19.2267 23.4633C19.7667 23.68 20.1367 24.1333 20.3367 24.6533C20.3889 24.7911 20.4262 24.9355 20.4484 25.0866C20.4706 25.15 20.4812 25.215 20.4801 25.2816C20.4202 27.1846 20.4268 29.0891 20.5001 30.9916C20.5367 31.815 20.5901 32.5383 20.6584 33.11C20.7251 33.68 20.8217 34.1133 20.8834 34.26C21.0834 34.75 21.3784 35.39 21.9117 35.825C22.4451 36.26 23.2067 36.5483 24.6017 36.2583C25.8117 36.0066 26.5584 35.6583 27.0584 35.1533C27.5551 34.6516 27.8534 33.9533 28.0434 32.8816C28.3284 31.2766 28.9017 26.625 28.9701 25.7483C28.9401 25.09 29.0401 24.5816 29.2567 24.195C29.4817 23.7983 29.8284 23.555 30.1267 23.4233C30.2767 23.3566 30.4167 23.3133 30.5317 23.2816C30.4092 23.1121 30.2813 22.9465 30.1484 22.785C29.7174 22.2808 29.3641 21.7151 29.1001 21.1066C28.9729 20.8563 28.8378 20.6101 28.6951 20.3683C28.4867 20.0016 28.2217 19.5433 27.9451 19.0283C27.3901 17.9966 26.7867 16.7466 26.4734 15.5283C26.1617 14.3133 26.1151 13.055 26.9151 12.1666C27.6251 11.3783 28.8684 11.0516 30.7367 11.235C30.6817 11.075 30.6484 10.9416 30.5551 10.7283C30.1335 9.75994 29.5823 8.85333 28.9167 8.03329C27.3334 6.06996 24.7717 4.12329 20.8117 4.05996H20.6317V4.05829ZM10.1717 4.13663C9.97173 4.13663 9.77173 4.14218 9.57173 4.15329C7.98173 4.24163 6.47839 4.68996 5.40339 5.79663C4.32506 6.90163 3.61673 8.71496 3.77006 11.7183C3.80173 12.285 4.05673 13.8783 4.49339 15.7683C4.93006 17.6616 5.55006 19.8866 6.29339 21.8516C7.03673 23.8183 7.94006 25.53 8.79673 26.34C9.22839 26.745 9.60339 26.9083 9.94339 26.895C10.2851 26.8783 10.6951 26.6883 11.1984 26.1033C12.115 25.0306 13.0655 23.9873 14.0484 22.975C13.3539 22.3926 12.8193 21.6429 12.4951 20.7966C12.1734 19.9584 12.0758 19.0508 12.2117 18.1633C12.3734 17.0333 12.3951 15.9766 12.3767 15.1433C12.3567 14.33 12.2967 13.79 12.2967 13.4516V13.405C12.295 11.6435 12.6106 9.89617 13.2284 8.24663C13.6684 7.10996 14.3251 5.95496 15.3101 5.01996C14.3434 4.71163 12.6267 4.24163 10.7684 4.15329C10.5686 4.14259 10.3685 4.13704 10.1684 4.13663H10.1717ZM29.6951 12.2066C28.6267 12.22 28.0267 12.4883 27.7117 12.8383C27.2651 13.335 27.2234 14.205 27.5001 15.2783C27.7767 16.3516 28.3451 17.5533 28.8817 18.55C29.1484 19.05 29.4084 19.5 29.6184 19.8633C29.8301 20.23 29.9851 20.49 30.0784 20.7133C30.1673 20.9144 30.2606 21.0983 30.3584 21.265C30.7717 20.4166 30.8467 19.585 30.8034 18.7166C30.7484 17.6433 30.4917 16.545 30.5301 15.4333C30.5717 14.1333 30.8367 13.285 30.8601 12.28C30.4735 12.2329 30.0845 12.2084 29.6951 12.2066ZM16.7284 12.3816C16.4019 12.3841 16.0767 12.4221 15.7584 12.495C15.1256 12.6441 14.515 12.875 13.9417 13.1816C13.7495 13.2816 13.5662 13.3977 13.3917 13.53L13.3584 13.56C13.3684 13.7833 13.4134 14.325 13.4334 15.12C13.4501 15.9916 13.4301 17.1033 13.2567 18.3033C12.8801 20.9166 14.8334 23.08 17.1301 23.0833C17.2634 22.5466 17.4851 22.0033 17.7051 21.43C18.3451 19.7583 19.6034 18.54 18.5434 13.7816C18.3701 13.0033 18.0267 12.6883 17.5534 12.51C17.2883 12.4179 17.0089 12.3745 16.7284 12.3816ZM29.1951 12.6933H29.2751C29.3795 12.6966 29.4739 12.7077 29.5584 12.7266C29.635 12.742 29.7084 12.7708 29.7751 12.8116C29.8054 12.8295 29.8316 12.8536 29.852 12.8823C29.8724 12.911 29.8865 12.9437 29.8934 12.9783V12.9916C29.8978 13.0649 29.8778 13.1375 29.8367 13.1983C29.7902 13.2823 29.7318 13.3592 29.6634 13.4266C29.5019 13.598 29.2889 13.7121 29.0567 13.7516C28.8291 13.7786 28.5995 13.7223 28.4101 13.5933C28.3338 13.5429 28.2649 13.4824 28.2051 13.4133C28.1545 13.3593 28.1199 13.2924 28.1051 13.22C28.1014 13.1843 28.1055 13.1483 28.117 13.1144C28.1285 13.0804 28.1472 13.0494 28.1717 13.0233C28.225 12.9674 28.2876 12.9211 28.3567 12.8866C28.6207 12.7654 28.9064 12.6985 29.1967 12.69L29.1951 12.6933ZM16.8817 12.95C16.9651 12.95 17.0523 12.9566 17.1434 12.97C17.3834 13.0033 17.5984 13.065 17.7617 13.1566C17.8417 13.1977 17.9117 13.2516 17.9717 13.3183C18.0028 13.355 18.0262 13.3955 18.0417 13.44C18.0573 13.4844 18.0623 13.5305 18.0567 13.5783C18.0416 13.6667 18.0004 13.7485 17.9384 13.8133C17.8739 13.8909 17.7981 13.9584 17.7134 14.0133C17.5064 14.1543 17.2553 14.2153 17.0067 14.185C16.7545 14.1442 16.5227 14.0219 16.3467 13.8366C16.2736 13.762 16.2108 13.6779 16.1601 13.5866C16.1082 13.5067 16.0852 13.4114 16.0951 13.3166C16.1184 13.15 16.2601 13.0666 16.3951 13.0166C16.5511 12.9671 16.715 12.9468 16.8784 12.9566L16.8817 12.95ZM31.1484 24.17H31.1434C30.9117 24.2533 30.7217 24.2866 30.5601 24.3533C30.399 24.413 30.2655 24.5299 30.1851 24.6816C30.0851 24.8566 30.0017 25.1683 30.0267 25.6983C30.0985 25.7457 30.1772 25.7817 30.2601 25.805C30.5284 25.885 30.9801 25.9383 31.4851 25.93C32.4884 25.9183 33.7251 25.6916 34.3817 25.395C34.9201 25.1516 35.4201 24.835 35.8667 24.455C33.6717 24.895 32.4334 24.7783 31.6717 24.4733C31.4839 24.3966 31.3077 24.2956 31.1484 24.17ZM18.5017 24.3116H18.4684C18.3851 24.3183 18.2634 24.345 18.0301 24.5983C17.4801 25.195 17.2901 25.5683 16.8367 25.9183C16.3867 26.2683 15.7984 26.4533 14.6251 26.6866C14.2534 26.76 14.0417 26.8416 13.8984 26.9066C13.9451 26.9433 13.9401 26.9533 14.0084 26.9883C14.1801 27.08 14.4017 27.16 14.5784 27.205C15.0834 27.3266 15.9117 27.47 16.7767 27.3266C17.6417 27.1833 18.5401 26.7816 19.3067 25.7383C19.4401 25.5583 19.4534 25.2916 19.3451 25.005C19.2334 24.7216 18.9934 24.475 18.8234 24.405C18.722 24.3571 18.6132 24.3267 18.5017 24.315V24.3116Z" fill="#6D6D6D"/>
</svg>
