<svg width="40" height="40" viewBox="0 0 40 40" fill="none" xmlns="http://www.w3.org/2000/svg">
<path d="M29.3154 28.785C29.5607 26.7434 29.4872 26.4437 31.0079 26.7746L31.3938 26.8084C32.5632 26.8615 34.0929 26.6203 34.9916 26.2028C36.9263 25.305 38.0732 23.8065 36.166 24.2C31.8147 25.0978 31.5157 23.6243 31.5157 23.6243C36.1104 16.8071 38.031 8.15309 36.3729 6.03465C31.851 0.256837 24.0238 2.98902 23.8929 3.05965L23.851 3.06746C22.9913 2.88902 22.0291 2.78246 20.9482 2.76496C18.9791 2.73246 17.485 3.28121 16.3516 4.14059C16.3516 4.14059 2.38817 -1.61223 3.03786 11.3753C3.17598 14.1381 6.99786 32.2809 11.5566 26.8009C13.2229 24.7971 14.8329 23.1028 14.8329 23.1028C15.6322 23.6337 16.5897 23.905 17.5935 23.8075L17.6713 23.7412C17.6469 23.99 17.6575 24.2334 17.7022 24.5215C16.5282 25.8337 16.8732 26.064 14.5254 26.5471C12.1497 27.0365 13.5454 27.9081 14.4563 28.1359C15.561 28.4121 18.1163 28.8034 19.8432 26.3865L19.7744 26.6621C20.235 27.0309 20.2041 29.3112 20.2691 30.9403C20.3344 32.5696 20.4435 34.09 20.7757 34.9865C21.1079 35.8831 21.4997 38.1915 24.5854 37.5303C27.1641 36.979 29.1357 36.1837 29.3154 28.785Z" fill="black"/>
<path d="M23.5807 39.1423C22.216 39.1423 21.3273 38.6145 20.7876 38.1048C19.9729 37.3361 19.6498 36.3458 19.4567 35.7542L19.3732 35.5073C18.9845 34.4579 18.8526 32.947 18.7745 31.0014C18.7626 30.7092 18.7545 30.4083 18.7454 30.0892C18.7388 29.8558 18.7307 29.5629 18.7188 29.2567C18.2272 29.4911 17.7053 29.656 17.1682 29.7467C16.206 29.9111 15.1717 29.8579 14.0932 29.5883C13.3323 29.3979 12.5417 29.0036 12.091 28.3945C10.7776 29.5448 9.52478 29.3889 8.84228 29.1611C7.63822 28.7595 6.56072 27.6311 5.54791 25.712C4.82635 24.3448 4.12853 22.5636 3.47353 20.4173C2.33291 16.6798 1.60822 12.7433 1.54385 11.4508C1.34135 7.40545 2.43041 4.51232 4.7801 2.85263C8.48666 0.234507 14.1026 1.77419 16.1501 2.47326C17.5257 1.64419 19.1442 1.24076 20.9729 1.26982C21.9551 1.28576 22.8904 1.37201 23.7592 1.52701C24.6654 1.24201 26.4554 0.832945 28.5045 0.85857C32.2798 0.90357 35.4082 2.37482 37.551 5.11326C39.0804 7.06701 38.3242 11.1698 37.7376 13.4417C36.912 16.6373 35.4654 20.0361 33.6885 22.9948C34.171 22.9983 34.8701 22.9404 35.8638 22.7351C37.8245 22.3304 38.3979 23.3817 38.5535 23.8523C39.177 25.7404 36.467 27.1673 35.6217 27.5598C34.5385 28.0626 32.7726 28.3689 31.3263 28.3026L31.2632 28.2986L30.8832 28.2651L30.8457 28.582L30.8095 28.8917C30.7123 32.6414 30.1767 35.0161 29.0745 36.5851C27.9192 38.2301 26.3135 38.6911 24.8992 38.9942C24.4167 39.0973 23.9782 39.1423 23.5807 39.1423ZM20.7088 25.4951C21.5898 26.2001 21.667 27.5267 21.736 30.0058C21.7448 30.3151 21.7529 30.6079 21.7638 30.8814C21.797 31.7095 21.8748 33.6486 22.1785 34.4679C22.2213 34.5839 22.2598 34.7014 22.3004 34.8261C22.6388 35.8623 22.8085 36.382 24.272 36.0692C25.5004 35.8058 26.132 35.5695 26.6263 34.8658C27.3448 33.8426 27.7467 31.7845 27.8204 28.7486L29.3151 28.7848L27.8307 28.6067L27.8745 28.2361C28.0167 27.0142 28.1192 26.1317 28.9357 25.5479C29.591 25.0798 30.3376 25.1251 30.9323 25.2323C30.2788 24.7386 30.0982 24.1595 30.0501 23.922L29.9254 23.3079L30.2757 22.7883C32.2935 19.7945 33.9573 16.1151 34.841 12.6933C35.7492 9.17732 35.4723 7.31013 35.1954 6.95701C31.5301 2.27357 25.1742 4.20732 24.5104 4.42669L24.3982 4.48732L23.8357 4.59201L23.5476 4.53232C22.7532 4.36732 21.8707 4.27607 20.9248 4.26076C19.4385 4.23576 18.2395 4.58701 17.2563 5.33294L16.5742 5.85013L15.7826 5.52419C14.0913 4.83263 9.12385 3.44232 6.5026 5.29888C5.0476 6.32951 4.38478 8.34888 4.53228 11.3011C4.58103 12.2758 5.24322 15.9654 6.33572 19.5439C7.84541 24.4892 9.21728 26.132 9.7901 26.3229C9.8901 26.3567 10.1495 26.1551 10.4076 25.8451C11.4839 24.555 12.5983 23.2971 13.7495 22.0733L14.6151 21.1623L15.6617 21.8576C16.0835 22.1379 16.5488 22.297 17.0267 22.327L19.5226 20.1983L19.161 23.8883C19.1529 23.9711 19.1488 24.0839 19.1813 24.2933L19.2901 24.9926L18.8182 25.5201L18.7638 25.5814L20.1351 26.2142L20.7088 25.4951Z" fill="black"/>
<path d="M36.1659 24.2001C31.8144 25.0979 31.5153 23.6245 31.5153 23.6245C36.11 16.807 38.0306 8.15263 36.3731 6.03482C31.8512 0.25732 24.0234 2.98951 23.8928 3.06045L23.8506 3.06795C22.9909 2.88951 22.0287 2.78326 20.9472 2.76576C18.9781 2.73357 17.4847 3.28201 16.3512 4.14138C16.3512 4.14138 2.38748 -1.61112 3.03686 11.3761C3.17498 14.1392 6.99686 32.282 11.5556 26.802C13.2219 24.7983 14.8315 23.1039 14.8315 23.1039C15.6312 23.6348 16.5884 23.9061 17.5919 23.8086L17.67 23.7423C17.6456 23.9911 17.6569 24.2345 17.7012 24.5226C16.5269 25.8348 16.8719 26.0651 14.524 26.5483C12.1484 27.0376 13.544 27.9092 14.4553 28.137C15.5597 28.4133 18.1153 28.8045 19.8419 26.3876L19.7728 26.6633C20.2331 27.032 20.5562 29.0608 20.5022 30.8998C20.4481 32.7389 20.4115 34.0017 20.7744 34.9879C21.1369 35.9742 21.4981 38.1929 24.5844 37.5317C27.1631 36.9792 28.4994 35.547 28.6856 33.1583C28.8175 31.4598 29.1159 31.7111 29.135 30.1926L29.3747 29.4739C29.6509 27.1717 29.4184 26.4292 31.0075 26.7745L31.3934 26.8083C32.5628 26.8614 34.0931 26.6201 34.9915 26.2026C36.9259 25.3054 38.0731 23.8067 36.1659 24.2001Z" fill="#336791"/>
<path d="M23.7365 38.2208C21.164 38.2208 20.349 36.1836 20.0156 35.3504C19.5274 34.1295 19.4221 29.3914 19.5309 25.5058C19.5325 25.4402 19.547 25.3757 19.5737 25.3158C19.6004 25.2559 19.6387 25.2019 19.6863 25.1569C19.7339 25.1119 19.79 25.0767 19.8513 25.0535C19.9126 25.0302 19.9779 25.0193 20.0434 25.0214C20.1088 25.0232 20.1733 25.0378 20.233 25.0645C20.2928 25.0913 20.3467 25.1295 20.3917 25.1771C20.4367 25.2246 20.4719 25.2806 20.4952 25.3418C20.5186 25.4029 20.5296 25.4681 20.5277 25.5336C20.4024 30.0151 20.5802 34.0764 20.9415 34.9801C21.5052 36.3892 22.3602 37.6217 24.7774 37.1039C27.0721 36.6117 27.9315 35.7417 28.3143 33.5226C28.6081 31.8198 29.189 26.9754 29.2606 26.0195C29.2653 25.9542 29.283 25.8904 29.3124 25.8319C29.3419 25.7734 29.3826 25.7213 29.4323 25.6786C29.4819 25.6359 29.5395 25.6033 29.6017 25.5829C29.664 25.5625 29.7296 25.5545 29.7949 25.5595C29.9267 25.5695 30.0492 25.6314 30.1354 25.7316C30.2217 25.8317 30.2647 25.962 30.2549 26.0939C30.1802 27.0892 29.6021 31.9242 29.2971 33.6923C28.8452 36.3133 27.6768 37.502 24.9865 38.0789C24.5293 38.1767 24.114 38.2204 23.7365 38.2208ZM9.78774 28.2704C9.56288 28.2697 9.3396 28.2328 9.12649 28.1611C7.45555 27.6036 5.86399 24.8823 4.39586 20.072C3.27836 16.4104 2.57024 12.5886 2.50805 11.3464C2.32399 7.66388 3.27211 5.05857 5.3268 3.60325C9.39149 0.723254 16.2293 3.46575 16.5184 3.58388C16.6408 3.6339 16.7384 3.73051 16.7896 3.85247C16.8408 3.97443 16.8415 4.11174 16.7915 4.23419C16.7415 4.35665 16.6449 4.45422 16.5229 4.50544C16.4009 4.55666 16.2636 4.55733 16.1412 4.50732C16.0752 4.48044 9.51836 1.85357 5.90118 4.41825C4.1443 5.66388 3.33774 7.97826 3.50368 11.2967C3.55586 12.3433 4.21743 16.0733 5.3493 19.7808C6.65993 24.0751 8.15149 26.7848 9.4418 27.2151C9.6443 27.2826 10.2606 27.4879 11.1415 26.4286C12.1688 25.1947 13.2346 23.9935 14.3374 22.8267C14.4297 22.7347 14.5543 22.6824 14.6847 22.6811C14.815 22.6798 14.9406 22.7295 15.0347 22.8197C15.1288 22.9099 15.1839 23.0333 15.1881 23.1636C15.1924 23.2938 15.1455 23.4206 15.0574 23.5167C15.0424 23.5323 13.5427 25.1001 11.9084 27.0664C11.1343 27.9973 10.3924 28.2704 9.78774 28.2704ZM31.4843 24.0689C31.3939 24.0688 31.3052 24.0441 31.2278 23.9975C31.1503 23.9508 31.087 23.8841 31.0446 23.8042C31.0021 23.7244 30.9822 23.6346 30.9869 23.5443C30.9916 23.454 31.0207 23.3667 31.0712 23.2917C35.7159 16.3995 37.3462 8.07169 35.9499 6.28732C34.1924 4.04169 31.7109 2.86888 28.5737 2.80107C26.2509 2.75107 24.4046 3.34419 24.1027 3.44763L24.0268 3.47857C23.7234 3.57388 23.4906 3.40763 23.4027 3.21325C23.3527 3.10189 23.3451 2.97605 23.3814 2.85948C23.4177 2.7429 23.4955 2.64365 23.5999 2.58044C23.6143 2.572 23.6599 2.55263 23.734 2.52544C24.2468 2.33763 26.1212 1.77513 28.4427 1.80169C31.914 1.83857 34.7815 3.177 36.7346 5.67294C37.6587 6.85388 37.6609 9.5745 36.7406 13.1376C35.8024 16.7704 34.0371 20.6745 31.8977 23.8492C31.8021 23.992 31.6446 24.0689 31.4843 24.0689ZM31.7218 27.2595C30.9287 27.2595 30.2177 27.1476 29.7921 26.8926C29.3546 26.6304 29.2712 26.2742 29.2602 26.0851C29.1409 23.9883 30.2977 23.6233 30.8877 23.4567C30.8056 23.3323 30.6887 23.1861 30.5677 23.0351C30.2237 22.6051 29.7524 22.0164 29.3893 21.1358C29.3324 20.9983 29.1543 20.6786 28.9481 20.3083C27.8296 18.3026 25.5024 14.1292 26.9974 11.992C27.6893 11.0029 29.0671 10.6136 31.0971 10.8308C30.4999 9.01138 27.6562 3.32013 20.9084 3.2095C18.879 3.17575 17.2146 3.79982 15.964 5.06263C13.164 7.89044 13.2652 13.007 13.2668 13.0583C13.2685 13.1237 13.2573 13.1889 13.2339 13.25C13.2104 13.3111 13.1752 13.367 13.1301 13.4145C13.085 13.4621 13.031 13.5002 12.9712 13.5269C12.9114 13.5535 12.8469 13.5681 12.7815 13.5698C12.716 13.5715 12.6509 13.5604 12.5897 13.5369C12.5286 13.5134 12.4727 13.4782 12.4252 13.4331C12.3777 13.388 12.3395 13.3341 12.3129 13.2742C12.2863 13.2144 12.2717 13.15 12.2699 13.0845C12.2637 12.8573 12.1593 7.48794 15.2556 4.36075C16.7046 2.89732 18.6121 2.17482 20.9249 2.21263C25.2418 2.28357 28.0206 4.47825 29.5912 6.30669C31.3034 8.2995 32.1427 10.4976 32.2118 11.2314C32.2634 11.777 31.8718 11.8861 31.7927 11.9023L31.6127 11.9064C29.6206 11.5873 28.3424 11.8089 27.814 12.5639C26.6768 14.1892 28.8784 18.137 29.8184 19.8229C30.0584 20.2529 30.2315 20.5639 30.3109 20.7558C30.6196 21.5045 31.0224 22.0076 31.3459 22.412C31.6306 22.7676 31.8771 23.0761 31.9652 23.4379C32.0062 23.5098 32.5871 24.3692 36.0343 23.6576C36.8984 23.4795 37.4165 23.6317 37.5749 24.1108C37.8865 25.0529 36.1384 26.152 35.1706 26.6014C34.3034 27.0045 32.9193 27.2595 31.7218 27.2595ZM30.2543 26.0029C30.3637 26.1133 30.9109 26.3036 32.044 26.2548C33.0515 26.2117 34.114 25.9926 34.7515 25.6967C35.5668 25.3179 36.1112 24.8945 36.3931 24.6054L36.2368 24.6342C34.0327 25.0892 32.4737 25.0286 31.6031 24.4539C31.5445 24.4153 31.4882 24.3735 31.4343 24.3286C31.3399 24.3658 31.2527 24.3901 31.1906 24.4076C30.6968 24.5461 30.1862 24.6895 30.2543 26.0029ZM16.0162 28.7889C15.4687 28.7889 14.8924 28.7142 14.304 28.567C13.6943 28.4145 12.6665 27.9554 12.6821 27.2014C12.6999 26.3554 13.9302 26.1017 14.3934 26.0064C16.0665 25.6617 16.1756 25.5236 16.6984 24.8595C16.8509 24.6661 17.0406 24.4251 17.2993 24.1364C17.6834 23.7064 18.1031 23.4886 18.5468 23.4886C18.8559 23.4886 19.1093 23.5933 19.2768 23.6629C19.8106 23.8842 20.2559 24.4192 20.439 25.0589C20.6043 25.6361 20.5252 26.1917 20.2171 26.6233C19.2056 28.0398 17.7527 28.7889 16.0162 28.7889ZM13.7593 27.2442C13.9096 27.3604 14.2109 27.5158 14.5462 27.5995C15.0559 27.727 15.5502 27.7917 16.0165 27.7917C17.4371 27.7917 18.5777 27.2036 19.4062 26.0436C19.579 25.8017 19.5271 25.4945 19.4809 25.3329C19.384 24.9945 19.1434 24.6867 18.8956 24.5839C18.7612 24.5283 18.6496 24.4858 18.5471 24.4858C18.4921 24.4858 18.3246 24.4858 18.0427 24.8011C17.8482 25.0198 17.6612 25.2451 17.4821 25.4767C16.8309 26.3036 16.5324 26.5842 14.5949 26.9833C14.1221 27.0801 13.8796 27.1789 13.7593 27.2442ZM17.5934 24.9442C17.4743 24.944 17.3593 24.9012 17.269 24.8236C17.1788 24.7461 17.1192 24.6387 17.1012 24.5211C17.0887 24.4383 17.0803 24.355 17.0762 24.2714C15.8062 24.2476 14.5809 23.7026 13.6506 22.732C12.4743 21.5048 11.939 19.8045 12.1821 18.0673C12.4462 16.1808 12.3474 14.5154 12.2943 13.6208C12.2796 13.372 12.269 13.1923 12.2696 13.0679C12.2706 12.9101 12.2737 12.4917 13.6724 11.7826C14.1699 11.5304 15.1674 11.0904 16.2571 10.9776C18.0624 10.7911 19.2524 11.5951 19.6087 13.242C20.5702 17.6883 19.6849 19.6548 19.0384 21.0911C18.9181 21.3586 18.8043 21.6111 18.7134 21.8558L18.6331 22.0714C18.2915 22.9873 17.9962 23.7786 18.0868 24.3695C18.0968 24.4342 18.0939 24.5003 18.0783 24.5639C18.0627 24.6275 18.0347 24.6874 17.996 24.7402C17.9572 24.793 17.9085 24.8376 17.8525 24.8715C17.7965 24.9055 17.7343 24.928 17.6696 24.9379L17.5934 24.9442ZM13.2699 13.2061L13.2893 13.562C13.3443 14.4914 13.4468 16.2208 13.1693 18.2058C12.969 19.6386 13.4065 21.037 14.3702 22.042C15.1318 22.8364 16.134 23.2748 17.164 23.2748H17.1852C17.3006 22.7889 17.4921 22.2758 17.6984 21.7229L17.7781 21.5086C17.8809 21.2323 18.0012 20.9648 18.1287 20.6817C18.7509 19.2992 19.5256 17.5783 18.6334 13.4529C18.4568 12.6358 18.0284 12.1629 17.3243 12.007C15.8781 11.6876 13.7227 12.7754 13.2699 13.2061ZM16.2793 12.9945C16.2543 13.1708 16.6021 13.6414 17.0559 13.7042C17.5087 13.7676 17.8962 13.3995 17.9209 13.2233C17.9456 13.047 17.5981 12.8526 17.1443 12.7895C16.6906 12.7264 16.3034 12.8183 16.2793 12.9945ZM17.1599 13.8776L17.0327 13.8689C16.7515 13.8298 16.4671 13.6526 16.2724 13.3945C16.204 13.3039 16.0924 13.1283 16.1146 12.9714C16.1462 12.7414 16.4268 12.6036 16.8646 12.6036C16.9624 12.6036 17.0643 12.6108 17.1668 12.6251C17.4062 12.6583 17.6284 12.7273 17.7924 12.8189C18.0768 12.9776 18.0977 13.1548 18.0849 13.2464C18.0499 13.5004 17.6459 13.8776 17.1599 13.8776ZM16.4446 13.0239C16.4587 13.1326 16.7281 13.4914 17.0787 13.5398L17.1602 13.5454C17.484 13.5454 17.7259 13.2908 17.7543 13.2073C17.7243 13.1504 17.5162 13.0092 17.1215 12.9542C17.0365 12.9422 16.9508 12.936 16.8649 12.9358C16.6112 12.9358 16.4765 12.9929 16.4446 13.0239ZM30.0712 12.6348C30.0959 12.8111 29.7484 13.2817 29.2949 13.3448C28.8418 13.4079 28.454 13.0401 28.429 12.8639C28.4052 12.6876 28.7527 12.4929 29.2059 12.4301C29.659 12.3667 30.0462 12.4589 30.0712 12.6348ZM29.1902 13.4348C28.754 13.4348 28.3774 13.0954 28.3465 12.8751C28.3106 12.6108 28.7459 12.4098 29.194 12.3476C29.2927 12.3339 29.3906 12.327 29.4846 12.327C29.8715 12.327 30.1277 12.4404 30.1534 12.6236C30.1699 12.742 30.079 12.9248 29.9224 13.0898C29.819 13.1983 29.6018 13.3861 29.3059 13.427L29.1902 13.4348ZM29.4849 12.4933C29.3983 12.4933 29.3091 12.4996 29.2174 12.5123C28.7671 12.5751 28.4984 12.7558 28.5115 12.8526C28.5265 12.9592 28.814 13.2689 29.1906 13.2689L29.2834 13.2623C29.5293 13.2283 29.714 13.0676 29.8021 12.9751C29.9406 12.8298 29.9956 12.6929 29.989 12.6464C29.9802 12.5845 29.814 12.4933 29.4849 12.4933ZM30.724 22.7567C30.6337 22.7567 30.545 22.7322 30.4675 22.6858C30.39 22.6393 30.3267 22.5727 30.2842 22.4929C30.2417 22.4132 30.2216 22.3235 30.2262 22.2332C30.2308 22.143 30.2599 22.0557 30.3102 21.9808C31.3721 20.3948 31.1777 18.7776 30.9899 17.2136C30.9096 16.5473 30.8271 15.8583 30.8484 15.197C30.8702 14.5167 30.9568 13.9554 31.0402 13.4126C31.1393 12.7695 31.2331 12.162 31.1943 11.4408C31.1908 11.3754 31.2002 11.31 31.2219 11.2482C31.2437 11.1865 31.2774 11.1296 31.3211 11.0809C31.3648 11.0322 31.4177 10.9925 31.4768 10.9642C31.5358 10.936 31.5999 10.9196 31.6652 10.9161C31.7306 10.9125 31.796 10.9219 31.8578 10.9437C31.9195 10.9654 31.9764 10.9991 32.0251 11.0429C32.1235 11.1312 32.1828 11.255 32.1899 11.387C32.2343 12.2114 32.1284 12.8989 32.0259 13.5642C31.9468 14.0776 31.8649 14.6086 31.8452 15.2289C31.8262 15.8145 31.9009 16.4364 31.9799 17.0945C32.1799 18.7576 32.4065 20.6426 31.139 22.5354C31.0933 22.6035 31.0315 22.6593 30.9591 22.6979C30.8868 22.7365 30.806 22.7567 30.724 22.7567Z" fill="white"/>
</svg>
