<svg width="40" height="40" viewBox="0 0 40 40" fill="none" xmlns="http://www.w3.org/2000/svg">
<g clip-path="url(#clip0_1732_37)">
<path d="M35.3492 8.14584C28.8026 -0.331659 16.6223 -1.89666 8.14448 4.65115C-0.332079 11.199 -1.89552 23.3793 4.6523 31.8558C11.2014 40.3321 23.3826 41.8946 31.8579 35.3455C40.331 28.7977 41.8948 16.6212 35.3492 8.14584Z" fill="#F37036"/>
<path d="M28.4618 7.55129C27.7942 7.60469 27.1611 7.87035 26.6553 8.30942C26.0633 8.82351 25.6855 9.54079 25.5965 10.3197C25.5074 11.0987 25.7134 11.8828 26.174 12.5172C26.6342 13.1518 27.3155 13.5909 28.0835 13.748C28.8514 13.9051 29.6504 13.7686 30.3228 13.3657H30.3234L30.3722 13.4144C30.5936 13.2875 30.7997 13.1355 30.9862 12.9613C31.5618 12.3525 31.8784 11.544 31.8693 10.7063C31.8602 9.86855 31.5261 9.0671 30.9375 8.47098V8.47035L28.1737 11.2169L28.125 11.1685L30.8887 8.42067C30.5688 8.11225 30.187 7.87532 29.7686 7.72555C29.3502 7.57578 28.9048 7.5166 28.4618 7.55192V7.55129ZM24.8231 12.0472C23.4981 12.045 21.3347 13.5469 16.0522 18.8294L16.0784 18.8563C16.0497 18.8463 16.0206 18.8454 16.0206 18.8454L14.0318 20.8166C13.9808 20.8652 13.947 20.9291 13.9356 20.9987C13.9242 21.0682 13.9358 21.1396 13.9687 21.2019C14.0016 21.2643 14.054 21.3141 14.1178 21.344C14.1817 21.3738 14.2535 21.382 14.3225 21.3672L17.7331 20.6397C17.7483 20.6257 17.7584 20.607 17.7618 20.5866L17.8375 20.6647L16.675 21.8179H16.6187L9.71684 28.7741L11.9312 30.9066C11.9931 30.9626 12.0712 30.9973 12.1542 31.0057C12.2372 31.0141 12.3207 30.9957 12.3925 30.9532C12.4648 30.9111 12.5228 30.8481 12.5588 30.7725C12.5947 30.6968 12.607 30.6121 12.594 30.5294L12.2706 29.1232C12.2503 29.095 12.2393 29.0611 12.2393 29.0263C12.2393 28.9915 12.2503 28.9576 12.2706 28.9294C15.2937 27.4882 18.1051 25.6394 20.6262 23.4347L19.209 22.0169L19.2359 22.0125L18.3953 21.1722L18.449 21.1179L18.5059 21.176L18.4765 21.2044L20.7068 23.4835V23.4825C24.9818 19.4344 28.0162 16.1804 27.2272 13.9904C27.1912 13.7285 27.0696 13.4858 26.8812 13.3004V13.3016C26.8332 13.2662 26.7828 13.2342 26.7303 13.206C26.7043 13.1785 26.6815 13.1504 26.654 13.1235L26.6334 13.1441C26.5753 13.109 26.5145 13.0787 26.4515 13.0535L26.5418 12.9622C25.9806 12.4622 25.5168 12.0485 24.8231 12.0466V12.0472ZM9.66872 28.8157L8.05278 30.4319V30.4332C7.9948 30.4691 7.94972 30.5225 7.92406 30.5857C7.89839 30.6489 7.89345 30.7186 7.90997 30.7847C7.92591 30.8509 7.9623 30.9103 8.01398 30.9546C8.06565 30.9988 8.12997 31.0257 8.19778 31.0313L12.1578 31.3047L9.66872 28.8157Z" fill="white"/>
<path d="M28.7343 7.28418C27.8273 7.28316 26.9564 7.63899 26.3096 8.27481C25.8495 8.74578 25.5345 9.33909 25.4021 9.98406C25.2696 10.629 25.3254 11.2985 25.5627 11.9126C24.0812 11.2782 22.0768 12.3845 15.8421 18.6179C15.8378 18.6275 15.8339 18.6373 15.8305 18.6473C15.8177 18.6529 15.8053 18.6594 15.7934 18.6667L13.8218 20.6554C13.7273 20.7482 13.6652 20.8689 13.6448 20.9998C13.6244 21.1306 13.6467 21.2645 13.7084 21.3817C13.7634 21.4744 13.8414 21.5514 13.9348 21.6053C14.0282 21.6591 14.134 21.688 14.2418 21.6892L14.3396 21.6257L16.9721 21.0642L15.7127 22.3351C15.7056 22.3519 15.7 22.3692 15.6959 22.387L9.52399 28.5742C9.49939 28.5949 9.47902 28.6201 9.46399 28.6486L7.87461 30.2392C7.7955 30.3229 7.74143 30.427 7.71856 30.5399C7.69569 30.6527 7.70493 30.7698 7.74524 30.8776C7.78683 30.9847 7.85714 31.0783 7.94843 31.148C8.03973 31.2177 8.14848 31.261 8.26274 31.2729L12.2059 31.5479C12.2732 31.5245 12.3306 31.4788 12.3684 31.4182C12.4021 31.3711 12.4202 31.3145 12.4202 31.2565C12.4202 31.1985 12.4021 31.142 12.3684 31.0948L12.3602 31.087C12.4455 31.0426 12.5206 30.9809 12.5805 30.9057C12.6438 30.8235 12.688 30.7283 12.71 30.6269C12.7319 30.5255 12.731 30.4205 12.7074 30.3195L12.3999 29.0111C15.3501 27.6012 18.1143 25.8314 20.6293 23.742C20.6536 23.7562 20.6796 23.767 20.7068 23.7742C20.7862 23.7682 20.8605 23.7342 20.9168 23.6779C25.1512 19.6686 27.6402 16.9211 27.6402 14.7398C27.6496 14.4372 27.604 14.1355 27.5055 13.8492C27.8872 14.0071 28.2943 14.095 28.7071 14.1086L28.7024 14.1098C29.2711 14.0927 29.8271 13.9371 30.3221 13.6567L30.3234 13.657C30.3875 13.676 30.4564 13.6699 30.5162 13.6398C30.7551 13.4991 30.9729 13.3253 31.163 13.1236C31.4854 12.8074 31.7414 12.4301 31.9162 12.0139C32.091 11.5976 32.1811 11.1507 32.1812 10.6992C32.1811 10.2477 32.0911 9.80079 31.9164 9.38452C31.7416 8.96825 31.4856 8.591 31.1634 8.27481C31.1518 8.26442 31.1395 8.25492 31.1265 8.24637C30.4831 7.62884 29.6258 7.28415 28.734 7.28449L28.7343 7.28418ZM28.7071 7.83793C29.3386 7.8417 29.9516 8.05174 30.4527 8.43606L27.9315 10.9726C27.9229 10.9823 27.915 10.9926 27.9077 11.0032C27.8623 11.0492 27.8357 11.1105 27.833 11.1751C27.833 11.2142 27.8418 11.2527 27.8587 11.2879C27.8757 11.323 27.9003 11.3539 27.9309 11.3782H27.9315L29.8377 13.2845C29.316 13.5122 28.7376 13.577 28.1784 13.4703C27.6192 13.3636 27.1053 13.0905 26.704 12.6867C25.8959 11.8742 25.6615 10.6542 26.0937 9.59574C26.5259 8.53637 27.5562 7.84418 28.7071 7.83793ZM30.9321 8.91043C31.3444 9.4092 31.5691 10.0365 31.5674 10.6836C31.5663 11.4416 31.2641 12.1682 30.7274 12.7036C30.6198 12.8048 30.5051 12.8982 30.3843 12.9832L28.8459 11.4686L28.5449 11.1676L28.6277 11.0848L30.9318 8.90981L30.9321 8.91043ZM30.8177 10.2207C30.7612 10.203 30.7001 10.2064 30.6459 10.2304C30.5922 10.2582 30.5518 10.306 30.5334 10.3636C30.5243 10.3923 30.521 10.4225 30.5237 10.4525C30.5264 10.4824 30.535 10.5116 30.549 10.5382C30.6044 10.655 30.6262 10.7849 30.612 10.9134C30.5978 11.0419 30.5482 11.1639 30.4687 11.2657C30.4483 11.2854 30.4323 11.3092 30.4218 11.3355C30.4113 11.3617 30.4065 11.39 30.4077 11.4182C30.409 11.4757 30.4296 11.5307 30.4687 11.572C30.5103 11.5879 30.5564 11.5879 30.598 11.572C30.6356 11.5814 30.675 11.5803 30.7121 11.5689C30.7491 11.5575 30.7823 11.5362 30.808 11.5073C30.9411 11.3443 31.0254 11.147 31.0511 10.9381C31.0768 10.7293 31.0429 10.5174 30.9534 10.327V10.3282C30.9228 10.277 30.8746 10.2388 30.8177 10.2207ZM24.7937 12.3217C25.1707 12.3345 25.5336 12.4689 25.828 12.7048C25.511 12.7505 25.2171 12.8974 24.9902 13.1236L17.863 20.2189L16.4643 18.8201C20.1605 15.1414 22.4205 13.2198 23.8255 12.5901C24.115 12.4078 24.4516 12.3147 24.7937 12.3217ZM26.0327 13.2467C26.272 13.2469 26.5015 13.3417 26.6712 13.5104C26.7612 13.5952 26.8322 13.6981 26.8796 13.8124C26.9269 13.9266 26.9495 14.0496 26.9459 14.1732C26.9418 14.2964 26.9123 14.4175 26.8593 14.5287C26.8064 14.64 26.7311 14.7392 26.638 14.8201L19.0599 21.4157L18.2421 20.5979L25.3943 13.5104C25.564 13.3418 25.7935 13.2468 26.0327 13.2467ZM26.9684 15.3398C26.4402 17.4342 23.6412 20.272 20.7224 23.0295L19.5421 21.8504L26.9684 15.3398ZM16.0521 19.2332L16.1377 19.3176L17.2355 20.4154L14.2262 21.0592L16.0521 19.2332ZM17.8624 21.0582L17.8637 21.0595L18.2287 21.4329L18.2343 21.4592L18.2587 21.4629L18.3362 21.5423L18.5924 21.8048L16.9096 22.0111L17.8624 21.0582ZM19.0709 22.332L20.189 23.4495C17.7166 25.5054 15.0034 27.2532 12.1093 28.6545C12.0153 28.6992 11.9398 28.7752 11.8955 28.8694C11.8512 28.9635 11.841 29.0702 11.8665 29.1711L12.1899 30.5773C12.2018 30.5938 12.2083 30.6137 12.2083 30.634C12.2083 30.6544 12.2018 30.6742 12.1899 30.6907C12.1721 30.7067 12.1491 30.7155 12.1252 30.7155C12.1014 30.7155 12.0783 30.7067 12.0605 30.6907L10.1537 28.7682L16.0312 22.8045L19.0709 22.332ZM9.7168 29.1882L9.98836 29.4426L11.3921 30.8464L8.26211 30.6439L9.7168 29.1882Z" fill="#F37036"/>
</g>
<defs>
<clipPath id="clip0_1732_37">
<rect width="40" height="40" fill="white"/>
</clipPath>
</defs>
</svg>
