<svg width="40" height="40" viewBox="0 0 40 40" fill="none" xmlns="http://www.w3.org/2000/svg">
<circle cx="20" cy="20" r="20" fill="white"/>
<g clip-path="url(#clip0_1732_46)">
<path d="M32.8353 27.7922L22.4532 5.94353C22.3242 5.67467 22.1242 5.44538 21.8745 5.27993C21.6248 5.11447 21.3345 5.01901 21.0345 5.00365C20.7339 4.98369 20.4336 5.04578 20.1662 5.18317C19.8987 5.32055 19.6744 5.52798 19.5176 5.78288L8.25717 23.8563C8.08601 24.1292 7.99687 24.4449 8.00021 24.7662C8.00355 25.0875 8.09922 25.4012 8.27602 25.6706L13.7813 34.119C13.9896 34.4362 14.2957 34.6781 14.6541 34.8087C15.0125 34.9393 15.4039 34.9516 15.7699 34.8438L31.7463 30.1607C31.9869 30.091 32.2095 29.9709 32.3992 29.8086C32.589 29.6463 32.7413 29.4455 32.8459 29.2198C32.9491 28.9954 33.0017 28.7513 33 28.5046C32.9983 28.2579 32.9424 28.0145 32.8361 27.7915L32.8353 27.7922ZM30.5109 28.7293L16.954 32.7019C16.5404 32.8238 16.1434 32.4686 16.2294 32.0549L21.073 9.07262C21.1635 8.64265 21.7627 8.57453 21.9522 8.97246L30.9184 27.8408C30.958 27.9249 30.9788 28.0165 30.9793 28.1093C30.9797 28.2021 30.9599 28.2939 30.9211 28.3783C30.8823 28.4628 30.8254 28.5379 30.7545 28.5984C30.6836 28.659 30.6002 28.7036 30.5102 28.7292L30.5109 28.7293Z" fill="#09090B"/>
</g>
<defs>
<clipPath id="clip0_1732_46">
<rect width="25" height="30" fill="white" transform="translate(8 5)"/>
</clipPath>
</defs>
</svg>
