<svg width="33" height="40" viewBox="0 0 33 40" fill="none" xmlns="http://www.w3.org/2000/svg">
<g clip-path="url(#clip0_1554_171)">
<path d="M29.6837 31.7099L11.8084 37.0168C11.2622 37.1791 10.7388 36.7049 10.8536 36.1517L17.2394 5.4539C17.3589 4.87953 18.1494 4.78867 18.3988 5.32031L30.2226 30.523C30.4456 30.9988 30.1912 31.5595 29.6837 31.71M32.7489 30.4578L19.0588 1.27546C18.1563 -0.419145 16.0206 -0.35766 15.1863 1.06062L0.338424 25.2005C-0.121554 25.9533 -0.112448 26.881 0.364575 27.624L7.62249 38.9098C8.37083 39.8054 9.06282 40.2278 10.2447 39.8769L31.3123 33.6223C32.7158 33.2005 33.392 31.8394 32.7489 30.4578Z" fill="#6D6D6D"/>
</g>
<defs>
<clipPath id="clip0_1554_171">
<rect width="33" height="40" fill="white"/>
</clipPath>
</defs>
</svg>
