<svg width="40" height="40" viewBox="0 0 40 40" fill="none" xmlns="http://www.w3.org/2000/svg">
<path d="M20 16.8499C21.7167 16.8499 23.1167 18.2499 23.1167 19.9999C23.1167 21.6666 21.7167 23.0833 20 23.0833C18.2834 23.0833 16.8834 21.6666 16.8834 19.9999C16.8834 18.2499 18.2834 16.8499 20 16.8499ZM12.2834 33.3333C13.3334 33.9666 15.6334 32.9999 18.2834 30.4999C17.4167 29.5166 16.5667 28.4499 15.7667 27.3333C14.4237 27.2038 13.0886 27.0035 11.7667 26.7333C10.9167 30.2999 11.2334 32.7499 12.2834 33.3333ZM13.4667 23.7666L12.9834 22.9166C12.8 23.3999 12.6167 23.8833 12.5 24.3499C12.95 24.4499 13.45 24.5333 13.9667 24.6166L13.4667 23.7666ZM24.3667 22.4999L25.7167 19.9999L24.3667 17.4999C23.8667 16.6166 23.3334 15.8333 22.85 15.0499C21.95 14.9999 21 14.9999 20 14.9999C19 14.9999 18.05 14.9999 17.15 15.0499C16.6667 15.8333 16.1334 16.6166 15.6334 17.4999L14.2834 19.9999L15.6334 22.4999C16.1334 23.3833 16.6667 24.1666 17.15 24.9499C18.05 24.9999 19 24.9999 20 24.9999C21 24.9999 21.95 24.9999 22.85 24.9499C23.3334 24.1666 23.8667 23.3833 24.3667 22.4999ZM20 11.2999C19.6834 11.6666 19.35 12.0499 19.0167 12.4999H20.9834C20.65 12.0499 20.3167 11.6666 20 11.2999ZM20 28.6999C20.3167 28.3333 20.65 27.9499 20.9834 27.4999H19.0167C19.35 27.9499 19.6834 28.3333 20 28.6999ZM27.7 6.66661C26.6667 6.03328 24.3667 6.99995 21.7167 9.49995C22.5834 10.4833 23.4334 11.5499 24.2334 12.6666C25.6 12.7999 26.95 12.9999 28.2334 13.2666C29.0834 9.69995 28.7667 7.24995 27.7 6.66661ZM26.5334 16.2333L27.0167 17.0833C27.2 16.5999 27.3834 16.1166 27.5 15.6499C27.05 15.5499 26.55 15.4666 26.0334 15.3833L26.5334 16.2333ZM28.95 4.48328C31.4 5.88328 31.6667 9.56661 30.6334 13.8666C34.8667 15.1166 37.9167 17.1833 37.9167 19.9999C37.9167 22.8166 34.8667 24.8833 30.6334 26.1333C31.6667 30.4333 31.4 34.1166 28.95 35.5166C26.5167 36.9166 23.2 35.3166 20 32.2666C16.8 35.3166 13.4834 36.9166 11.0334 35.5166C8.60004 34.1166 8.33337 30.4333 9.36671 26.1333C5.13337 24.8833 2.08337 22.8166 2.08337 19.9999C2.08337 17.1833 5.13337 15.1166 9.36671 13.8666C8.33337 9.56661 8.60004 5.88328 11.0334 4.48328C13.4834 3.08328 16.8 4.68328 20 7.73328C23.2 4.68328 26.5167 3.08328 28.95 4.48328ZM28.4667 19.9999C29.0334 21.2499 29.5334 22.4999 29.95 23.7666C33.45 22.7166 35.4167 21.2166 35.4167 19.9999C35.4167 18.7833 33.45 17.2833 29.95 16.2333C29.5334 17.4999 29.0334 18.7499 28.4667 19.9999ZM11.5334 19.9999C10.9667 18.7499 10.4667 17.4999 10.05 16.2333C6.55004 17.2833 4.58337 18.7833 4.58337 19.9999C4.58337 21.2166 6.55004 22.7166 10.05 23.7666C10.4667 22.4999 10.9667 21.2499 11.5334 19.9999ZM26.5334 23.7666L26.0334 24.6166C26.55 24.5333 27.05 24.4499 27.5 24.3499C27.3834 23.8833 27.2 23.3999 27.0167 22.9166L26.5334 23.7666ZM21.7167 30.4999C24.3667 32.9999 26.6667 33.9666 27.7 33.3333C28.7667 32.7499 29.0834 30.2999 28.2334 26.7333C26.95 26.9999 25.6 27.1999 24.2334 27.3333C23.4334 28.4499 22.5834 29.5166 21.7167 30.4999ZM13.4667 16.2333L13.9667 15.3833C13.45 15.4666 12.95 15.5499 12.5 15.6499C12.6167 16.1166 12.8 16.5999 12.9834 17.0833L13.4667 16.2333ZM18.2834 9.49995C15.6334 6.99995 13.3334 6.03328 12.2834 6.66661C11.2334 7.24995 10.9167 9.69995 11.7667 13.2666C13.0886 12.9964 14.4237 12.7961 15.7667 12.6666C16.5667 11.5499 17.4167 10.4833 18.2834 9.49995Z" fill="#6D6D6D"/>
</svg>
