<svg width="40" height="40" viewBox="0 0 40 40" fill="none" xmlns="http://www.w3.org/2000/svg">
<g clip-path="url(#clip0_1732_9)">
<path d="M7.08447 14.6875H38.2313V37.7094H7.08447V14.6875Z" fill="white"/>
<path d="M0.46875 19.9717V39.5029H39.5312V0.44043H0.46875V19.9717ZM31.9469 18.4092C32.8825 18.6263 33.7328 19.1156 34.3906 19.8154C34.7527 20.1925 35.0675 20.6122 35.3281 21.0654C35.3281 21.1154 33.6406 22.2561 32.6125 22.8936C32.575 22.9186 32.425 22.7561 32.2594 22.5092C32.0717 22.1853 31.805 21.9143 31.4842 21.7214C31.1635 21.5285 30.799 21.42 30.425 21.4061C29.2406 21.3248 28.4781 21.9467 28.4844 22.9686C28.4749 23.2229 28.5331 23.4753 28.6531 23.6998C28.9125 24.2404 29.3969 24.5623 30.9156 25.2186C33.7125 26.4217 34.9094 27.2154 35.6531 28.3436C36.4844 29.5936 36.6688 31.6123 36.1063 33.1061C35.4813 34.7311 33.95 35.8342 31.7844 36.1998C30.7953 36.3132 29.7959 36.3027 28.8094 36.1686C27.2974 35.9193 25.9046 35.1934 24.8344 34.0967C24.475 33.6998 23.775 32.6654 23.8188 32.5904C23.9326 32.5054 24.0527 32.4292 24.1781 32.3623L25.625 31.5623L26.7469 30.9123L26.9812 31.2592C27.3769 31.8249 27.8803 32.307 28.4625 32.6779C29.7125 33.3342 31.4187 33.2436 32.2625 32.4842C32.5458 32.2059 32.7225 31.8371 32.7619 31.442C32.8013 31.0468 32.7009 30.6504 32.4781 30.3217C32.1656 29.8873 31.5406 29.5217 29.7937 28.7592C27.7781 27.8904 26.9094 27.3529 26.1156 26.4967C25.6203 25.9315 25.2544 25.2649 25.0437 24.5436C24.8867 23.7193 24.8635 22.8752 24.975 22.0436C25.3906 20.0967 26.85 18.7373 28.9812 18.3342C29.9683 18.2122 30.968 18.2396 31.9469 18.4154V18.4092ZM22.7781 20.0467V21.6467H17.7062V36.0936H14.1094V21.6436H9.025V20.0811C9.00905 19.5422 9.02157 19.0029 9.0625 18.4654C9.0875 18.4373 12.1875 18.4373 15.9375 18.4373H22.7594L22.7781 20.0467Z" fill="#007ACC"/>
</g>
<defs>
<clipPath id="clip0_1732_9">
<rect width="40" height="40" fill="white"/>
</clipPath>
</defs>
</svg>
