<svg width="40" height="40" viewBox="0 0 40 40" fill="none" xmlns="http://www.w3.org/2000/svg">
<g clip-path="url(#clip0_1554_132)">
<mask id="mask0_1554_132" style="mask-type:luminance" maskUnits="userSpaceOnUse" x="0" y="0" width="40" height="40">
<path d="M0 0H40V40H0V0Z" fill="white"/>
</mask>
<g mask="url(#mask0_1554_132)">
<path d="M39.0483 5.84849e-06H0.950002C0.825105 5.65628e-06 0.701435 0.0246333 0.586067 0.0724794C0.470699 0.120326 0.365898 0.190451 0.27766 0.278843C0.189423 0.367236 0.119481 0.47216 0.071837 0.587611C0.0241931 0.703063 -0.000217651 0.826777 1.46469e-06 0.951672V39.05C-0.00021809 39.175 0.0242476 39.2989 0.0719956 39.4145C0.119744 39.53 0.189834 39.635 0.278249 39.7234C0.366663 39.8118 0.471661 39.8819 0.587221 39.9297C0.702782 39.9774 0.826632 40.0019 0.951668 40.0017H39.05C39.175 40.0019 39.2989 39.9774 39.4144 39.9297C39.53 39.8819 39.635 39.8118 39.7234 39.7234C39.8118 39.635 39.8819 39.53 39.9297 39.4145C39.9774 39.2989 40.0019 39.175 40.0017 39.05V0.950006C40.0017 0.824969 39.977 0.701162 39.929 0.585685C39.8811 0.470208 39.8108 0.365332 39.7222 0.277073C39.6337 0.188814 39.5286 0.118907 39.4129 0.0713613C39.2973 0.0238158 39.1734 -0.000432877 39.0483 5.84849e-06ZM23.81 21.3767H19.0483V36.19H15.2383V21.3767H10.4767V18.095H23.81V21.3767ZM24.8767 35.3433V31.385C24.8767 31.385 27.04 33.015 29.635 33.015C32.23 33.015 32.13 31.3183 32.13 31.085C32.13 28.6233 24.7767 28.6233 24.7767 23.1667C24.7767 15.7467 35.4917 18.675 35.4917 18.675L35.3583 22.2017C35.3583 22.2017 33.5617 21.0033 31.5317 21.0033C29.5017 21.0033 28.77 21.97 28.77 23C28.77 25.6617 36.19 25.3967 36.19 30.7533C36.19 39.0033 24.8767 35.345 24.8767 35.345" fill="#6D6D6D"/>
</g>
</g>
<defs>
<clipPath id="clip0_1554_132">
<rect width="40" height="40" fill="white"/>
</clipPath>
</defs>
</svg>
