<svg width="70" height="69" viewBox="0 0 355 354" fill="none" xmlns="http://www.w3.org/2000/svg">
<g clip-path="url(#clip0_829_2)">
<path d="M11.125 90.3148L177 3.38699L342.875 90.3148V263.685L177 350.613L11.125 263.685V90.3148Z" stroke="white" stroke-width="6"/>
<path d="M140.158 63L170.158 40V291L140.158 269.5V63Z" fill="white"/>
<path d="M214.158 63.0916L184.158 40V292L213.158 271.5L214.158 63.0916Z" fill="white"/>
<path d="M84.9385 192.847L169.924 259.478L170.301 291.179L75.1577 224L84.9385 192.847Z" fill="white"/>
<path d="M269.722 194L184.158 261L184.158 292L279.503 225.153L269.722 194Z" fill="white"/>
<path d="M62.1576 167.749L99.6577 186.5L108.44 216.296L75.1576 224L62.1576 167.749Z" fill="white"/>
<path d="M292.44 168.749L254.939 187.5L246.158 217.296L279.44 225L292.44 168.749Z" fill="white"/>
<path d="M243.359 194.952L224.196 168L292.523 168.096L285.534 194.956L243.359 194.952Z" fill="white"/>
</g>
<defs>
<clipPath id="clip0_829_2">
<rect width="355" height="354" fill="white"/>
</clipPath>
</defs>
</svg>
