<svg width="60" height="60" viewBox="0 0 60 60" fill="none" xmlns="http://www.w3.org/2000/svg">
<path d="M40.3068 35.6602C40.603 33.1936 40.5144 32.8317 42.3515 33.2311L42.8179 33.2723C44.2307 33.3366 46.079 33.045 47.1641 32.5406C49.5013 31.4564 50.8869 29.6452 48.5826 30.1209C43.3255 31.2052 42.9641 29.4258 42.9641 29.4258C48.5155 21.1894 50.8363 10.7344 48.8333 8.175C43.3705 1.19437 33.914 4.49531 33.7555 4.58109L33.7049 4.59094C32.6662 4.37484 31.5041 4.24641 30.1982 4.22531C27.8193 4.18641 26.0141 4.84922 24.6449 5.8875C24.6449 5.8875 7.77507 -1.06266 8.55975 14.6278C8.72663 17.9658 13.3443 39.885 18.8516 33.2644C20.8644 30.8437 22.8098 28.7967 22.8098 28.7967C23.7758 29.4384 24.9323 29.7656 26.1454 29.648L26.2391 29.5683C26.2101 29.8687 26.2227 30.1627 26.2771 30.5105C24.8582 32.0962 25.2754 32.3747 22.4385 32.9583C19.5688 33.5498 21.2549 34.6027 22.3551 34.8778C23.6901 35.212 26.7768 35.685 28.8632 32.7642L28.7802 33.0975C29.3371 33.5428 29.2991 36.2977 29.3779 38.2659C29.4566 40.2342 29.5888 42.0708 29.9901 43.1545C30.3913 44.2373 30.8648 47.0269 34.5927 46.2281C37.708 45.5597 40.0898 44.5987 40.3068 35.6602Z" fill="#FFFBFB"/>
<path d="M33.3784 48.1734C31.7294 48.1734 30.656 47.5359 30.0035 46.92C29.0191 45.9914 28.6286 44.7947 28.3956 44.0798L28.2949 43.7813C27.8252 42.5133 27.6663 40.688 27.572 38.3377C27.5582 37.9702 27.5464 37.6027 27.5369 37.2352C27.5289 36.9534 27.5191 36.6 27.505 36.2292C26.9109 36.5126 26.2804 36.712 25.6314 36.8217C24.4689 37.0205 23.2192 36.9558 21.9161 36.63C20.9969 36.4003 20.0416 35.9241 19.4974 35.1881C17.9106 36.578 16.397 36.3891 15.5725 36.1144C14.118 35.6292 12.8163 34.2666 11.5924 31.9472C10.721 30.2958 9.87767 28.1433 9.08595 25.5506C7.70783 21.0352 6.8322 16.2792 6.75439 14.7183C6.5097 9.83063 7.82501 6.33563 10.6638 4.33079C15.1427 1.16719 21.9278 3.02719 24.4014 3.87188C26.0631 2.87016 28.0183 2.38219 30.228 2.41782C31.4149 2.43704 32.5445 2.54157 33.5941 2.72813C34.6886 2.38407 36.8514 1.89 39.3269 1.92047C43.8878 1.97485 47.6674 3.75235 50.2563 7.06078C52.1036 9.42141 51.1905 14.378 50.4813 17.123C49.4842 20.9831 47.7363 25.0898 45.5894 28.6645C46.1725 28.6688 47.0167 28.5984 48.2177 28.3509C50.5867 27.8616 51.2791 29.1319 51.467 29.7005C52.2203 31.9819 48.9461 33.7055 47.9247 34.1794C46.6159 34.7873 44.4827 35.1572 42.7352 35.077L42.6588 35.0719L42.1999 35.0316L42.1544 35.4141L42.1108 35.7886C41.9936 40.3186 41.3463 43.1873 40.0145 45.0834C38.6191 47.0705 36.6789 47.6278 34.9703 47.9939C34.4475 48.1099 33.9139 48.1701 33.3784 48.1734ZM29.9088 31.6856C30.9733 32.5373 31.0666 34.14 31.1495 37.1353C31.1599 37.5089 31.1697 37.8628 31.1828 38.1933C31.2231 39.1936 31.3174 41.5364 31.6839 42.5264C31.736 42.6661 31.7824 42.8086 31.8311 42.9586C32.2399 44.2111 32.4452 44.8388 34.2128 44.46C35.6974 44.1422 36.46 43.8567 37.0572 43.0064C37.9253 41.7698 38.4109 39.2841 38.5 35.6156L40.3056 35.6597L38.5122 35.4445L38.5647 34.9969C38.7367 33.5213 38.8605 32.4544 39.8472 31.7494C40.6385 31.1836 41.5408 31.2384 42.2594 31.3678C41.47 30.772 41.2516 30.0717 41.1934 29.7848L41.043 29.0433L41.4658 28.4152C43.9033 24.7983 45.9138 20.3531 46.9816 16.2192C48.0784 11.9714 47.7438 9.71532 47.4095 9.28875C42.9817 3.63047 35.3022 5.96625 34.5006 6.23204L34.3647 6.30516L33.685 6.43219L33.3367 6.36C32.3772 6.16079 31.3113 6.05063 30.168 6.03188C28.3722 6.00188 26.9238 6.4261 25.7359 7.3275L24.9119 7.95235L23.9552 7.55813C21.9124 6.72282 15.9105 5.04328 12.7436 7.28625C10.9858 8.53125 10.1852 10.9711 10.3633 14.5378C10.4219 15.7153 11.2225 20.1727 12.5416 24.4964C14.3655 30.4711 16.023 32.4553 16.7149 32.6864C16.8353 32.7272 17.1489 32.4834 17.4606 32.1094C19.4885 29.6705 21.4169 27.6375 21.498 27.5517L22.5438 26.4516L23.808 27.2916C24.3175 27.6305 24.8795 27.8222 25.457 27.8583L28.4725 25.2867L28.0356 29.7445C28.0258 29.8448 28.0211 29.9808 28.0605 30.2339L28.1917 31.0791L27.6231 31.7156L27.5575 31.7892L29.2141 32.5542L29.9088 31.6856Z" fill="#FFFBFB"/>
<path d="M48.5844 30.121C43.3269 31.2052 42.9655 29.4253 42.9655 29.4253C48.5165 21.1889 50.8368 10.7334 48.8343 8.17454C43.371 1.19392 33.9144 4.49533 33.7565 4.58111L33.7054 4.59001C32.6666 4.37486 31.5046 4.24642 30.1982 4.22533C27.8193 4.18642 26.0146 4.84876 24.6454 5.88704C24.6454 5.88704 7.77506 -1.06264 8.55975 14.6278C8.72663 17.9658 13.3443 39.885 18.8516 33.2644C20.8644 30.8438 22.8093 28.7967 22.8093 28.7967C23.7754 29.4384 24.9318 29.7656 26.1444 29.648L26.2387 29.5683C26.2096 29.8688 26.2227 30.1627 26.2762 30.5105C24.8577 32.0963 25.274 32.3747 22.438 32.9583C19.5679 33.5499 21.254 34.6027 22.3551 34.8778C23.6896 35.212 26.7768 35.685 28.8627 32.7642L28.7793 33.0975C29.3352 33.5428 29.7257 35.9939 29.6601 38.2158C29.5944 40.4377 29.5508 41.963 29.9891 43.1545C30.4274 44.3456 30.8638 47.0269 34.5923 46.2281C37.7076 45.5602 39.3219 43.83 39.5469 40.9444C39.7063 38.8927 40.0668 39.196 40.0898 37.3613L40.3794 36.4927C40.7127 33.7111 40.4324 32.8139 42.3519 33.2316L42.8183 33.2724C44.2312 33.337 46.0799 33.045 47.1651 32.5406C49.5023 31.4559 50.8884 29.6452 48.5844 30.121Z" fill="#336791"/>
<path d="M33.5675 47.0597C30.4592 47.0602 29.4748 44.5988 29.0717 43.5923C28.4825 42.1177 28.355 36.3933 28.4862 31.6988C28.495 31.542 28.5645 31.3949 28.6801 31.2886C28.7956 31.1824 28.948 31.1254 29.105 31.1298C29.2619 31.1342 29.4109 31.1996 29.5203 31.3122C29.6297 31.4247 29.6909 31.5755 29.6909 31.7325C29.5395 37.147 29.7546 42.0534 30.1906 43.1447C30.8717 44.8472 31.9043 46.3364 34.8251 45.7111C37.5978 45.1162 38.636 44.0648 39.0982 41.3845C39.4535 39.3272 40.1548 33.4748 40.2411 32.3198C40.2529 32.1605 40.3276 32.0125 40.4486 31.9082C40.5697 31.8039 40.7272 31.752 40.8865 31.7639C41.0458 31.7758 41.1939 31.8505 41.2982 31.9715C41.4024 32.0926 41.4543 32.2501 41.4425 32.4094C41.3525 33.6113 40.654 39.4528 40.2851 41.5894C39.739 44.7558 38.3276 46.192 35.0773 46.8891C34.5814 46.9987 34.0753 47.0559 33.5675 47.0597ZM16.7154 35.0386C16.4438 35.0383 16.174 34.9938 15.9167 34.9069C13.8978 34.2333 11.975 30.9455 10.2012 25.1339C8.85121 20.7098 7.99574 16.0927 7.92074 14.5922C7.69808 10.1438 8.84418 6.9961 11.3262 5.23735C16.2368 1.75782 24.4981 5.07141 24.8473 5.21391C24.9939 5.27524 25.1102 5.39199 25.1711 5.53873C25.232 5.68546 25.2324 5.85031 25.1724 5.99738C25.1123 6.14444 24.9965 6.26181 24.8503 6.32394C24.7041 6.38606 24.5392 6.3879 24.3917 6.32907V6.32954C24.312 6.29672 16.3901 3.12329 12.0204 6.22219C9.89792 7.72735 8.92339 10.523 9.12355 14.5327C9.18683 15.7964 9.98605 20.3034 11.3534 24.7828C12.9368 29.9705 14.7392 33.2447 16.2978 33.7641C16.542 33.8461 17.2864 34.0941 18.3514 32.8144C20.3539 30.405 22.1937 28.4822 22.212 28.463C22.324 28.3544 22.4738 28.2935 22.6298 28.2931C22.7857 28.2926 22.9358 28.3527 23.0485 28.4606C23.1611 28.5685 23.2275 28.7159 23.2338 28.8717C23.24 29.0276 23.1856 29.1798 23.082 29.2964C23.0637 29.3152 21.252 31.2094 19.2776 33.5845C18.3425 34.7086 17.4457 35.0386 16.7154 35.0386ZM42.9279 29.9625C42.8185 29.9627 42.7112 29.933 42.6174 29.8767C42.5236 29.8204 42.4469 29.7397 42.3956 29.6431C42.3442 29.5465 42.3202 29.4377 42.326 29.3285C42.3319 29.2193 42.3674 29.1137 42.4287 29.0231C48.0401 20.6963 50.0098 10.6355 48.3228 8.48016C46.1993 5.76704 43.2007 4.34954 39.4109 4.26844C36.6045 4.2075 34.3737 4.92422 34.0095 5.04938L33.9181 5.08641C33.5515 5.20172 33.2703 5.00063 33.1643 4.76578C33.104 4.63123 33.0949 4.47926 33.1387 4.33846C33.1826 4.19765 33.2764 4.07773 33.4025 4.00125L33.5646 3.93469L33.5567 3.93704L33.5651 3.93422C34.1843 3.70782 36.4489 3.02813 39.2543 3.06047C43.4482 3.10454 46.9123 4.72219 49.272 7.73719C50.3885 9.16407 50.3909 12.4514 49.279 16.7559C48.1456 21.1444 46.0128 25.8614 43.4281 29.6967C43.373 29.7787 43.2985 29.8459 43.2113 29.8922C43.124 29.9386 43.0267 29.9627 42.9279 29.9625ZM43.2143 33.817C42.2562 33.817 41.3975 33.6825 40.8832 33.3741C40.3545 33.0577 40.2537 32.6269 40.2406 32.3986C40.0962 29.8655 41.494 29.4244 42.207 29.2233C42.1076 29.0733 41.966 28.8966 41.8203 28.7142C41.4045 28.1948 40.8354 27.4833 40.3967 26.4192C40.3282 26.2533 40.1126 25.8666 39.8632 25.4194C38.5118 22.9964 35.7003 17.9541 37.5064 15.3717C38.3426 14.1769 40.0067 13.7067 42.4592 13.9692C41.7378 11.7713 38.3018 4.89516 30.1503 4.76157C27.6982 4.72032 25.6873 5.47453 24.1765 6.99985C20.7936 10.4166 20.9164 16.5984 20.9178 16.6598C20.9198 16.7389 20.9063 16.8176 20.8779 16.8915C20.8496 16.9653 20.807 17.0328 20.7525 17.0902C20.6981 17.1476 20.6328 17.1937 20.5606 17.2258C20.4883 17.258 20.4104 17.2756 20.3314 17.2777C20.2523 17.2797 20.1736 17.2662 20.0998 17.2378C20.0259 17.2095 19.9584 17.1669 19.901 17.1124C19.8436 17.058 19.7976 16.9927 19.7654 16.9205C19.7332 16.8482 19.7156 16.7703 19.7135 16.6913C19.706 16.417 19.5795 9.93 23.3206 6.15188C25.0714 4.38375 27.3757 3.51094 30.17 3.55641C35.3862 3.64219 38.7429 6.29344 40.6409 8.50313C42.709 10.9106 43.7234 13.5666 43.8068 14.4525C43.8692 15.1116 43.3962 15.2438 43.3006 15.263L43.0835 15.2681C40.6765 14.8828 39.1325 15.15 38.494 16.0627C37.1201 18.0258 39.7798 22.7953 40.9156 24.8325C41.2057 25.3519 41.4148 25.7273 41.5104 25.9594C41.8835 26.8641 42.3701 27.472 42.761 27.9605C43.1046 28.3903 43.4028 28.7625 43.5096 29.2003C43.5589 29.287 44.261 30.3248 48.4259 29.4652C49.4698 29.25 50.0956 29.4342 50.2868 30.0127C50.6632 31.1513 48.5515 32.4788 47.3825 33.022C46.3334 33.5091 44.6614 33.817 43.2143 33.817ZM41.442 32.2992C41.5737 32.4328 42.2346 32.6625 43.6039 32.6039C44.8207 32.5514 46.1046 32.2866 46.8753 31.9294C47.8606 31.4719 48.5178 30.9605 48.8586 30.6113L48.6692 30.6459C46.0062 31.1958 44.1228 31.1227 43.0714 30.428C43.0006 30.3814 42.9325 30.3308 42.8675 30.2766C42.7535 30.3216 42.6481 30.3511 42.5731 30.3722C41.9764 30.5395 41.3595 30.7125 41.442 32.2992ZM24.2403 35.6644C23.5789 35.6644 22.8828 35.5748 22.1717 35.3963C21.4353 35.212 20.1931 34.6575 20.2123 33.7467C20.2334 32.7244 21.7198 32.4178 22.28 32.3025C24.3012 31.8863 24.4329 31.7194 25.0648 30.9173C25.249 30.6834 25.4782 30.3923 25.7904 30.0431C26.2545 29.5242 26.7617 29.2608 27.2979 29.2608C27.6711 29.2608 27.9776 29.3878 28.1796 29.4713C28.8246 29.7384 29.3628 30.3844 29.584 31.1578C29.7837 31.8553 29.6886 32.5266 29.3159 33.0478C28.0934 34.7602 26.3384 35.6644 24.2403 35.6644ZM21.5135 33.7987C21.6954 33.9389 22.0592 34.1264 22.4637 34.2281C23.0796 34.3819 23.6768 34.4602 24.2403 34.4602C25.9568 34.4602 27.3345 33.7491 28.3357 32.348C28.5443 32.0555 28.482 31.6847 28.4262 31.4892C28.309 31.0805 28.0184 30.7088 27.7189 30.5841C27.5562 30.5166 27.4217 30.465 27.2979 30.465C27.2314 30.465 27.0293 30.465 26.6886 30.8461C26.4007 31.1677 26.194 31.4302 26.0107 31.6622C25.2242 32.6611 24.8637 33 22.5228 33.4823C21.9518 33.6005 21.6589 33.7195 21.5135 33.7987ZM26.1457 31.02C26.0019 31.0198 25.863 30.9682 25.7539 30.8745C25.6448 30.7808 25.5728 30.6512 25.5509 30.5091C25.5355 30.409 25.5255 30.3083 25.5209 30.2072C23.9862 30.1781 22.5059 29.52 21.3823 28.3472C19.9615 26.8645 19.3146 24.8105 19.6081 22.7119C19.9268 20.4328 19.8078 18.4209 19.7435 17.34C19.7275 17.1177 19.7176 16.8949 19.714 16.672C19.715 16.4817 19.7187 15.9759 21.4086 15.1195C22.0095 14.8148 23.2146 14.2833 24.5309 14.1469C26.7125 13.9219 28.1501 14.8931 28.5804 16.8825C29.742 22.2544 28.6723 24.6305 27.8914 26.3653C27.7456 26.6878 27.6082 26.9934 27.4986 27.2888L27.4015 27.5498C26.989 28.6561 26.6323 29.6119 26.742 30.3263C26.7661 30.4842 26.7266 30.6452 26.6321 30.774C26.5376 30.9029 26.3959 30.989 26.2381 31.0134L26.1457 31.02ZM20.9225 16.8384L20.9464 17.2688C21.0129 18.3914 21.1367 20.4811 20.8011 22.8792C20.5592 24.6098 21.0879 26.2997 22.2518 27.5142C23.1715 28.4742 24.3828 29.0039 25.6273 29.0039H25.6531C25.7928 28.4166 26.0239 27.7969 26.2728 27.1289L26.3693 26.8697C26.4936 26.5359 26.6389 26.213 26.7926 25.8713C27.5445 24.2006 28.4801 22.1213 27.4025 17.137C27.1887 16.1503 26.6712 15.5789 25.8204 15.3905C24.0729 15.0042 21.469 16.3186 20.9225 16.8384ZM24.5581 16.583C24.5281 16.7958 24.9486 17.3644 25.496 17.4403C26.0431 17.5167 26.5114 17.0723 26.5409 16.8595C26.5704 16.6463 26.1504 16.4119 25.6025 16.3355C25.0554 16.2591 24.5871 16.3697 24.5581 16.583ZM25.6221 17.6503L25.4684 17.6395C25.1286 17.5922 24.785 17.378 24.5501 17.0663C24.4676 16.957 24.3326 16.7442 24.3593 16.5548C24.3978 16.2769 24.7362 16.1109 25.2654 16.1109C25.384 16.1109 25.5068 16.1198 25.6311 16.1367C25.9198 16.177 26.1884 16.2605 26.3867 16.3711C26.7303 16.5633 26.7556 16.777 26.7401 16.8881C26.6975 17.1942 26.209 17.6503 25.6221 17.6503ZM24.7578 16.6186C24.7751 16.7498 25.1 17.1834 25.5237 17.242L25.6217 17.2491C26.0126 17.2491 26.3051 16.9411 26.3393 16.8403C26.3032 16.7719 26.052 16.6008 25.5748 16.5352C25.4722 16.5204 25.3686 16.5129 25.265 16.5127C24.9593 16.5122 24.7957 16.5811 24.7578 16.6186ZM41.2207 16.1484C41.2503 16.3617 40.8307 16.9303 40.2828 17.0063C39.7353 17.0822 39.267 16.6383 39.237 16.425C39.2079 16.2122 39.6279 15.9773 40.1754 15.9014C40.7229 15.8245 41.1907 15.9361 41.2207 16.1484ZM40.1567 17.115C39.6293 17.115 39.1751 16.7048 39.1376 16.4391C39.0945 16.1198 39.62 15.877 40.1618 15.802C40.2809 15.7852 40.399 15.7767 40.5129 15.7767C40.9803 15.7767 41.2896 15.9141 41.3206 16.1348C41.3407 16.2783 41.231 16.4991 41.0417 16.6978C40.917 16.8291 40.6545 17.0564 40.2973 17.1056L40.1567 17.115ZM40.5125 15.9773C40.4079 15.9773 40.2992 15.9853 40.189 16.0003C39.6443 16.0758 39.3204 16.2947 39.3359 16.4119C39.3542 16.5403 39.7015 16.9144 40.1562 16.9144L40.2682 16.9064C40.5654 16.8647 40.7885 16.6711 40.895 16.5591C41.0618 16.3833 41.1284 16.2183 41.1204 16.1616C41.1106 16.088 40.91 15.9773 40.5125 15.9773ZM42.0096 28.3772C41.9005 28.3771 41.7935 28.3474 41.7 28.2913C41.6064 28.2351 41.5299 28.1546 41.4785 28.0584C41.4272 27.9621 41.4029 27.8537 41.4084 27.7447C41.4138 27.6358 41.4488 27.5303 41.5095 27.4397C42.792 25.5239 42.5571 23.5697 42.3303 21.6806C42.2332 20.8753 42.1334 20.0433 42.1596 19.2441C42.1859 18.4223 42.29 17.7445 42.3912 17.0883C42.5107 16.3116 42.6237 15.577 42.5768 14.7061C42.5734 14.5496 42.631 14.3978 42.7374 14.283C42.8439 14.1682 42.9908 14.0993 43.1471 14.0909C43.3035 14.0825 43.457 14.1352 43.5751 14.238C43.6932 14.3407 43.7668 14.4854 43.7801 14.6414C43.8335 15.637 43.7056 16.4677 43.5818 17.2716C43.4862 17.8917 43.3873 18.533 43.3634 19.2825C43.3404 19.9898 43.4309 20.7413 43.5265 21.5363C43.7684 23.5458 44.0417 25.8234 42.5107 28.1095C42.3945 28.283 42.2037 28.3772 42.0096 28.3772Z" fill="white"/>
<path d="M1.3291 48.3675C2.00213 48.2583 2.68307 48.2054 3.36488 48.2091C4.41254 48.2091 5.18082 48.4528 5.66832 48.8916C6.11926 49.2816 6.38738 49.8788 6.38738 50.6105C6.38738 51.3539 6.16754 51.9389 5.75316 52.3655C5.19254 52.9627 4.27848 53.2674 3.24254 53.2674C2.92566 53.2674 2.63316 53.2552 2.38988 53.1942V56.4853H1.3291V48.3675ZM2.38988 52.3285C2.62145 52.3894 2.91395 52.4138 3.26738 52.4138C4.5466 52.4138 5.32707 51.7922 5.32707 50.6588C5.32707 49.5741 4.55926 49.05 3.38926 49.05C2.92613 49.05 2.5727 49.0866 2.38988 49.1353V52.3285ZM12.8102 53.4863C12.8102 55.6678 11.2985 56.6189 9.87254 56.6189C8.27598 56.6189 7.04504 55.4489 7.04504 53.5838C7.04504 51.6094 8.33691 50.4516 9.97004 50.4516C11.6646 50.4511 12.8102 51.6825 12.8102 53.4863ZM8.1302 53.5472C8.1302 54.8391 8.87363 55.8141 9.92176 55.8141C10.9455 55.8141 11.7129 54.8513 11.7129 53.5228C11.7129 52.5235 11.2136 51.256 9.94566 51.256C8.6777 51.256 8.1302 52.426 8.1302 53.5472ZM14.0163 55.3875C14.3332 55.5947 14.8938 55.8141 15.43 55.8141C16.21 55.8141 16.5757 55.4241 16.5757 54.9366C16.5757 54.4247 16.2714 54.1444 15.4788 53.8519C14.4185 53.4741 13.9188 52.8891 13.9188 52.1822C13.9188 51.2316 14.6866 50.4516 15.9541 50.4516C16.5513 50.4516 17.0758 50.6222 17.4049 50.8172L17.1368 51.5972C16.774 51.3737 16.3563 51.2555 15.9302 51.256C15.2964 51.256 14.943 51.6216 14.943 52.0603C14.943 52.5478 15.2969 52.7672 16.0647 53.0597C17.0885 53.4497 17.6125 53.9616 17.6125 54.8391C17.6125 55.875 16.8082 56.6063 15.4066 56.6063C14.7607 56.6063 14.1635 56.4478 13.7491 56.2041L14.0163 55.3875ZM20.2811 48.8911V50.5852H21.8163V51.4017H20.2811V54.5827C20.2811 55.3139 20.4879 55.7283 21.0855 55.7283C21.295 55.7313 21.504 55.7067 21.7071 55.6552L21.7558 56.4595C21.5491 56.5449 21.2196 56.6058 20.8057 56.6058C20.306 56.6058 19.9033 56.4474 19.6474 56.1549C19.3432 55.838 19.233 55.3139 19.233 54.6192V51.4017H18.3189V50.5852H19.233V49.1714L20.2811 48.8911ZM28.0324 50.5856C28.0075 51.0122 27.9836 51.4875 27.9836 52.2066V55.6313C27.9836 56.9841 27.7155 57.8128 27.1427 58.3252C26.5699 58.8614 25.7411 59.032 24.9977 59.032C24.2908 59.032 23.5108 58.8614 23.035 58.5445L23.3032 57.728C23.6932 57.9717 24.3025 58.1911 25.0338 58.1911C26.1307 58.1911 26.935 57.6183 26.935 56.1314V55.4733H26.9107C26.5816 56.0217 25.9479 56.4605 25.0338 56.4605C23.5713 56.4605 22.5232 55.2174 22.5232 53.5838C22.5232 51.585 23.8272 50.4516 25.18 50.4516C26.2043 50.4516 26.7649 50.9878 27.0208 51.4753H27.0452L27.0939 50.5856H28.0324ZM26.9233 52.9135C26.9233 52.7306 26.9111 52.5722 26.8624 52.426C26.6674 51.8044 26.1433 51.2925 25.3633 51.2925C24.3391 51.2925 23.6083 52.1578 23.6083 53.5228C23.6083 54.6806 24.1933 55.6435 25.3511 55.6435C26.0093 55.6435 26.6064 55.2291 26.838 54.5466C26.8989 54.3638 26.9238 54.1566 26.9238 53.9738L26.9233 52.9135ZM29.6894 52.426C29.6894 51.7313 29.6772 51.1341 29.6407 50.5856H30.5796L30.6157 51.7435H30.6644C30.9325 50.9513 31.5785 50.4516 32.2975 50.4516C32.4194 50.4516 32.5043 50.4638 32.6018 50.4881V51.4997C32.4818 51.4736 32.3593 51.4613 32.2366 51.4631C31.481 51.4631 30.9443 52.0359 30.7985 52.8403C30.7684 53.0052 30.7521 53.1724 30.7497 53.34V56.4844H29.6894V52.426ZM34.1505 53.73C34.1749 55.1803 35.1007 55.7775 36.1732 55.7775C36.9414 55.7775 37.4041 55.6435 37.8063 55.4728L37.9891 56.2406C37.6113 56.4113 36.9654 56.6063 36.0269 56.6063C34.211 56.6063 33.1263 55.4119 33.1263 53.6325C33.1263 51.8531 34.1744 50.4511 35.8929 50.4511C37.8185 50.4511 38.3304 52.1452 38.3304 53.2299C38.3304 53.4492 38.306 53.6199 38.2938 53.7295L34.1505 53.73ZM37.2949 52.9622C37.3066 52.2797 37.0141 51.2194 35.808 51.2194C34.7233 51.2194 34.248 52.2188 34.1622 52.9622H37.2949Z" fill="#FFFBFB"/>
<path d="M39.5489 55.1925C40.1234 55.5376 40.7799 55.7228 41.4501 55.7287C42.5348 55.7287 43.1686 55.1559 43.1686 54.3272C43.1686 53.5594 42.7298 53.1206 41.6207 52.694C40.2801 52.2187 39.4514 51.524 39.4514 50.3662C39.4514 49.0865 40.5117 48.1359 42.1082 48.1359C42.9492 48.1359 43.5586 48.3309 43.9242 48.5381L43.6317 49.4034C43.1522 49.1457 42.616 49.0116 42.0717 49.0134C40.9504 49.0134 40.5239 49.6837 40.5239 50.2444C40.5239 51.0122 41.0231 51.39 42.157 51.8287C43.5464 52.3655 44.2532 53.0353 44.2532 54.2419C44.2532 55.5094 43.3148 56.6062 41.377 56.6062C40.5848 56.6062 39.7195 56.3747 39.2803 56.0822L39.5489 55.1925ZM52.4798 57.6909C51.4203 57.4129 50.3715 57.0958 49.3354 56.7403C49.1648 56.6794 48.9942 56.6184 48.8357 56.6184C46.8857 56.5453 45.2161 55.1072 45.2161 52.4625C45.2161 49.83 46.8248 48.1359 49.0429 48.1359C51.2732 48.1359 52.724 49.8665 52.724 52.2919C52.724 54.4003 51.749 55.7531 50.384 56.2284V56.2772C51.2006 56.4844 52.0903 56.6794 52.785 56.8012L52.4798 57.6909ZM51.6023 52.3406C51.6023 50.6953 50.7496 49.0008 49.0064 49.0008C47.2148 49.0008 46.3373 50.6583 46.3495 52.4381C46.3373 54.1809 47.3001 55.7531 48.9576 55.7531C50.6522 55.7531 51.6023 54.2175 51.6023 52.3406ZM54.1003 48.27H55.1611V55.5947H58.6711V56.4844H54.1003V48.27Z" fill="#336791"/>
</svg>
