<svg width="60" height="60" viewBox="0 0 60 60" fill="none" xmlns="http://www.w3.org/2000/svg">
<g clip-path="url(#clip0_690_2)">
<path d="M29.7461 0.0169373C14.5511 0.0169373 15.4999 6.63223 15.4999 6.63223L15.5168 13.4859H30.0171V15.5435H9.75746C9.75746 15.5435 0.0341797 14.4365 0.0341797 29.8282C0.0341797 45.2205 8.5209 44.6746 8.5209 44.6746H13.5857V37.532C13.5857 37.532 13.3127 29.012 21.937 29.012H36.3187C36.3187 29.012 44.3988 29.1431 44.3988 21.1722V7.99294C44.3988 7.99294 45.626 0.0169373 29.7461 0.0169373ZM21.7507 4.62588C22.0933 4.62557 22.4327 4.6931 22.7493 4.82459C23.0659 4.95609 23.3536 5.14898 23.5959 5.39222C23.8382 5.63547 24.0303 5.92429 24.1613 6.24216C24.2923 6.56003 24.3596 6.90071 24.3593 7.2447C24.3596 7.5887 24.2923 7.92938 24.1613 8.24725C24.0303 8.56512 23.8382 8.85394 23.5959 9.09718C23.3536 9.34042 23.0659 9.53331 22.7493 9.66481C22.4327 9.79631 22.0933 9.86384 21.7507 9.86353C21.408 9.86384 21.0687 9.79631 20.752 9.66481C20.4354 9.53331 20.1477 9.34042 19.9054 9.09718C19.6631 8.85394 19.471 8.56512 19.34 8.24725C19.209 7.92938 19.1418 7.5887 19.1421 7.2447C19.1418 6.90071 19.209 6.56003 19.34 6.24216C19.471 5.92429 19.6631 5.63547 19.9054 5.39222C20.1477 5.14898 20.4354 4.95609 20.752 4.82459C21.0687 4.6931 21.408 4.62557 21.7507 4.62588Z" fill="url(#paint0_linear_690_2)"/>
<path d="M30.1778 59.7943C45.3728 59.7943 44.4241 53.1791 44.4241 53.1791L44.4072 46.3256H29.9066V44.268H50.1662C50.1662 44.268 59.8895 45.3751 59.8895 29.9828C59.8895 14.5908 51.4028 15.1367 51.4028 15.1367H46.338V22.2791C46.338 22.2791 46.611 30.7991 37.9867 30.7991H23.605C23.605 30.7991 15.5249 30.668 15.5249 38.6391V51.8186C15.5249 51.8186 14.298 59.7943 30.1776 59.7943H30.1778ZM38.1733 55.1859C37.8306 55.1862 37.4913 55.1187 37.1746 54.9872C36.858 54.8557 36.5703 54.6628 36.328 54.4195C36.0857 54.1763 35.8936 53.8875 35.7626 53.5696C35.6316 53.2517 35.5644 52.911 35.5647 52.5671C35.5643 52.223 35.6316 51.8823 35.7625 51.5644C35.8935 51.2465 36.0857 50.9577 36.3279 50.7144C36.5702 50.4712 36.8579 50.2782 37.1746 50.1467C37.4912 50.0152 37.8306 49.9477 38.1733 49.948C38.5159 49.9477 38.8553 50.0152 39.1719 50.1467C39.4885 50.2782 39.7762 50.4711 40.0185 50.7143C40.2608 50.9576 40.4529 51.2464 40.5839 51.5643C40.7149 51.8821 40.7822 52.2228 40.7819 52.5668C40.7822 52.9108 40.7149 53.2515 40.5839 53.5694C40.4529 53.8872 40.2608 54.1761 40.0185 54.4193C39.7762 54.6625 39.4885 54.8554 39.1719 54.9869C38.8553 55.1184 38.5159 55.1862 38.1733 55.1859Z" fill="url(#paint1_linear_690_2)"/>
</g>
<defs>
<linearGradient id="paint0_linear_690_2" x1="575.24" y1="537.679" x2="3552.97" y2="3474.19" gradientUnits="userSpaceOnUse">
<stop stop-color="#387EB8"/>
<stop offset="1" stop-color="#366994"/>
</linearGradient>
<linearGradient id="paint1_linear_690_2" x1="864.53" y1="934.193" x2="4061.69" y2="3944.77" gradientUnits="userSpaceOnUse">
<stop stop-color="#FFE052"/>
<stop offset="1" stop-color="#FFC331"/>
</linearGradient>
<clipPath id="clip0_690_2">
<rect width="60" height="60" fill="white"/>
</clipPath>
</defs>
</svg>
